<svg width="24" height="24" viewBox="0 0 24 24" fill="none" xmlns="http://www.w3.org/2000/svg">
<path fill-rule="evenodd" clip-rule="evenodd" d="M3.25 5.85C3.25 4.96634 3.96634 4.25 4.85 4.25H10.375C10.5754 4.25 10.7675 4.33023 10.9084 4.47278L12.8132 6.4H18.2375C19.1212 6.4 19.8375 7.11633 19.8375 8V19.45C19.8375 19.8642 19.5017 20.2 19.0875 20.2H4C3.58579 20.2 3.25 19.8642 3.25 19.45V5.85ZM4.85 5.75C4.79477 5.75 4.75 5.79477 4.75 5.85V18.7H18.3375V8C18.3375 7.94476 18.2927 7.9 18.2375 7.9H12.5C12.2996 7.9 12.1075 7.81977 11.9666 7.67722L10.0618 5.75H4.85Z" fill="#817D78"/>
<path fill-rule="evenodd" clip-rule="evenodd" d="M11.25 10.5C11.5261 10.5 11.75 10.7239 11.75 11V15.5C11.75 15.7761 11.5261 16 11.25 16C10.9739 16 10.75 15.7761 10.75 15.5V11C10.75 10.7239 10.9739 10.5 11.25 10.5Z" fill="#817D78"/>
<path fill-rule="evenodd" clip-rule="evenodd" d="M8.5 13.25C8.5 12.9739 8.72386 12.75 9 12.75H13.5C13.7761 12.75 14 12.9739 14 13.25C14 13.5261 13.7761 13.75 13.5 13.75H9C8.72386 13.75 8.5 13.5261 8.5 13.25Z" fill="#817D78"/>
</svg>
