<svg width="24" height="24" viewBox="0 0 24 24" fill="none" xmlns="http://www.w3.org/2000/svg">
<path fill-rule="evenodd" clip-rule="evenodd" d="M2.25 8C2.25 4.82436 4.82436 2.25 8 2.25H16C19.1756 2.25 21.75 4.82436 21.75 8V16C21.75 19.1756 19.1756 21.75 16 21.75H8C4.82436 21.75 2.25 19.1756 2.25 16V8ZM8 3.75C5.65279 3.75 3.75 5.65279 3.75 8V16C3.75 18.3472 5.65279 20.25 8 20.25H16C18.3472 20.25 20.25 18.3472 20.25 16V8C20.25 5.65279 18.3472 3.75 16 3.75H8Z" fill="#CFCDC9"/>
<path fill-rule="evenodd" clip-rule="evenodd" d="M12 7.24997C12.4142 7.24997 12.75 7.58576 12.75 7.99997V16C12.75 16.4142 12.4142 16.75 12 16.75C11.5858 16.75 11.25 16.4142 11.25 16V7.99997C11.25 7.58576 11.5858 7.24997 12 7.24997Z" fill="#CFCDC9"/>
<path fill-rule="evenodd" clip-rule="evenodd" d="M7.24997 12C7.24997 11.5858 7.58576 11.25 7.99997 11.25H16C16.4142 11.25 16.75 11.5858 16.75 12C16.75 12.4142 16.4142 12.75 16 12.75H7.99997C7.58576 12.75 7.24997 12.4142 7.24997 12Z" fill="#CFCDC9"/>
</svg>
