<svg width="28" height="28" viewBox="0 0 28 28" fill="none" xmlns="http://www.w3.org/2000/svg">
<path fill-rule="evenodd" clip-rule="evenodd" d="M0.261841 3.13277L1.73815 2.86725L2.68012 8.1046L4.71864 6.89251L7.94983 9.54209L11.0536 5.80916H16.4337L20.2249 10.0534L22.8305 12.2217L25.4825 8.83942L26.6629 9.76497L23.0581 14.3625L20.435 12.1796L20.0971 15.7718L15.0395 18.9328L18.6245 21.9167L15.5475 25.3748L14.4269 24.3778L16.4733 22.0778L13.3296 19.4612L7.89543 16.2501L8.65853 14.9587L13.7521 17.9685L18.6732 14.8929L19.0412 10.9799L15.7623 7.30916H11.7572L8.15074 11.6467L4.58101 8.71948L1.58684 10.4998L0.261841 3.13277Z" fill="#E2E1DF"/>
<path fill-rule="evenodd" clip-rule="evenodd" d="M14 9.04999C14.4142 9.04999 14.75 9.38577 14.75 9.79999V14.8C14.75 15.2142 14.4142 15.55 14 15.55C13.5858 15.55 13.25 15.2142 13.25 14.8V9.79999C13.25 9.38577 13.5858 9.04999 14 9.04999Z" fill="#E2E1DF"/>
<path fill-rule="evenodd" clip-rule="evenodd" d="M10.75 12.3C10.75 11.8858 11.0858 11.55 11.5 11.55H16.5C16.9142 11.55 17.25 11.8858 17.25 12.3C17.25 12.7142 16.9142 13.05 16.5 13.05H11.5C11.0858 13.05 10.75 12.7142 10.75 12.3Z" fill="#E2E1DF"/>
</svg>
