<svg fill="none" xmlns="http://www.w3.org/2000/svg" viewBox="0 0 375 375"><circle cx="187.5" cy="187.5" r="187.5" fill="#EBEBEB"/><g clip-path="url(#clip0)"><path d="M206 273.7c0-16.7 16.5-32 33.1-32 2.6 0 5-.6 7.4 0V67h-144L73 97.4v196.5h136c-3-4.6-3-14.3-3-20.2z" fill="url(#paint0_linear)"/><path d="M203.5 276.9a37.6 37.6 0 0141-37.5v-87.2H75.7v137.9H206a37.5 37.5 0 01-2.4-13.2z" fill="#FDFDFC"/><path d="M244.3 153.5h-169V97.4l27.3-28.6h141.7v84.7z" fill="#FDFDFC"/><path d="M233.7 110H100.3v3.3h133.4V110zM233.7 123H100.3v3.1h133.4V123zM233.7 135.8H100.3v3.2h133.4v-3.2zM233.8 85.8H188v3.5h46v-3.5zM233.8 98.7H188v3.5h46v-3.5z" fill="#E3E1DE"/><path d="M233.8 111.5H188v3.5h46v-3.5z" fill="#E3E1DE"/><path opacity=".5" d="M233.8 124.4H188v3.5h46v-3.5z" fill="#7D7DE8"/><path d="M233.8 137.3H188v3.5h46v-3.5zM233.8 150.1H188v3.5h46v-3.5z" fill="#E3E1DE"/><path opacity=".5" d="M146.1 177.4h-45.9v3.5h46v-3.5z" fill="#7D7DE8"/><path d="M146.1 191.4h-45.9v3.5h46v-3.5z" fill="#E3E1DE"/><path opacity=".5" d="M220 184.4H100.2v3.5H220v-3.5z" fill="#C695D0"/><path opacity=".5" d="M146.1 211.3h-45.9v3.5h46v-3.5z" fill="#7D7DE8"/><path d="M146.1 225.3h-45.9v3.5h46v-3.5zM220 218.3H100.2v3.5H220v-3.5z" fill="#E3E1DE"/><path opacity=".5" d="M146.1 245h-45.9v3.6h46V245z" fill="#7D7DE8"/><path d="M146.1 259h-45.9v3.6h46V259zM198.4 252h-98.2v3.6h98.2V252z" fill="#E3E1DE"/><path d="M74.6 98h28.6V68.1l-28.6 30z" fill="url(#paint1_linear)"/><path d="M75.2 97.4h27.4V68.8L75.2 97.4z" fill="#F5F5F5"/><path opacity=".5" d="M274.8 323a32.2 32.2 0 100-64.4 32.2 32.2 0 000 64.4z" fill="url(#paint2_linear)"/><path d="M274.8 321a30.1 30.1 0 100-60.3 30.1 30.1 0 000 60.2z" fill="#7D7DE8"/><path opacity=".5" d="M291 287.2h-12.6v-12.7h-7.2v12.7h-12.6v7.2h12.6V307h7.3v-12.6H291v-7.2z" fill="url(#paint3_linear)"/><path d="M277.9 277h-6.2v27.6h6.2V277z" fill="#FDFDFC"/><path d="M288.6 293.9v-6.2H261v6.2h27.6z" fill="#FDFDFC"/><path d="M239.8 288.1c0-16.6 16.4-32 33-32 2.6 0 5.1-.6 7.5 0V81.4h-144l-29.6 30.4v196.6h136c-3-4.6-2.9-14.4-2.9-20.3z" fill="url(#paint4_linear)"/><path d="M237.3 291.4a37.6 37.6 0 0141-37.5v-87.2H109.4v137.8h130.1a37.5 37.5 0 01-2.3-13.1z" fill="#FDFDFC"/><path d="M278.1 168H109v-56.2l27.3-28.6h141.8V168z" fill="#FDFDFC"/><path d="M267.5 100.4H134v3.2h133.4v-3.2zM267.5 113.3H134v3.2h133.4v-3.2zM267.5 126.1H134v3.3h133.4V126z" fill="#E3E1DE"/><path opacity=".5" d="M267.5 139H134v3.2h133.4V139z" fill="#7D7DE8"/><path d="M267.5 151.9H134v3.2h133.4v-3.2zM267.5 164.7H134v3.2h133.4v-3.2z" fill="#E3E1DE"/><path opacity=".5" d="M179.9 191.9h-46v3.5h46v-3.5z" fill="#7D7DE8"/><path d="M179.9 205.9h-46v3.5h46v-3.5z" fill="#E3E1DE"/><path opacity=".5" d="M253.7 198.9H134v3.5h119.7v-3.5z" fill="#C695D0"/><path opacity=".5" d="M179.9 225.7h-46v3.5h46v-3.5z" fill="#7D7DE8"/><path d="M179.9 239.7h-46v3.5h46v-3.5zM253.7 232.7H134v3.5h119.7v-3.5z" fill="#E3E1DE"/><path opacity=".5" d="M179.9 259.6h-46v3.5h46v-3.5z" fill="#7D7DE8"/><path d="M179.9 273.6h-46v3.4h46v-3.4zM232.1 266.6H134v3.5H232v-3.5z" fill="#E3E1DE"/><path d="M108.3 112.5H137v-30l-28.7 30z" fill="url(#paint5_linear)"/><path d="M109 111.8h27.3V83.2L109 111.8z" fill="#F5F5F5"/></g><defs><linearGradient id="paint0_linear" x1="159.8" y1="293.9" x2="159.8" y2="67" gradientUnits="userSpaceOnUse"><stop stop-color="#B3B3B3" stop-opacity=".3"/><stop offset=".5" stop-color="#B3B3B3" stop-opacity=".1"/><stop offset="1" stop-color="#B3B3B3" stop-opacity=".1"/></linearGradient><linearGradient id="paint1_linear" x1="1490.9" y1="2952.8" x2="1490.9" y2="172.8" gradientUnits="userSpaceOnUse"><stop stop-color="#B3B3B3" stop-opacity=".3"/><stop offset=".5" stop-color="#B3B3B3" stop-opacity=".1"/><stop offset="1" stop-color="#B3B3B3" stop-opacity=".1"/></linearGradient><linearGradient id="paint2_linear" x1="274.8" y1="323" x2="274.8" y2="258.6" gradientUnits="userSpaceOnUse"><stop stop-color="gray" stop-opacity=".3"/><stop offset=".5" stop-color="gray" stop-opacity=".1"/><stop offset="1" stop-color="gray" stop-opacity=".1"/></linearGradient><linearGradient id="paint3_linear" x1="20670.2" y1="24553.1" x2="20670.2" y2="21265.1" gradientUnits="userSpaceOnUse"><stop stop-color="gray" stop-opacity=".3"/><stop offset=".5" stop-color="gray" stop-opacity=".1"/><stop offset="1" stop-color="gray" stop-opacity=".1"/></linearGradient><linearGradient id="paint4_linear" x1="106165" y1="182262" x2="106165" y2="22050.4" gradientUnits="userSpaceOnUse"><stop stop-color="#B3B3B3" stop-opacity=".3"/><stop offset=".5" stop-color="#B3B3B3" stop-opacity=".1"/><stop offset="1" stop-color="#B3B3B3" stop-opacity=".1"/></linearGradient><linearGradient id="paint5_linear" x1="4531.5" y1="4312.4" x2="4531.5" y2="1532.4" gradientUnits="userSpaceOnUse"><stop stop-color="#B3B3B3" stop-opacity=".3"/><stop offset=".5" stop-color="#B3B3B3" stop-opacity=".1"/><stop offset="1" stop-color="#B3B3B3" stop-opacity=".1"/></linearGradient><clipPath id="clip0"><path fill="#fff" transform="translate(73 67)" d="M0 0h234v256H0z"/></clipPath></defs></svg>