<svg fill="none" xmlns="http://www.w3.org/2000/svg" viewBox="0 0 28 28">
  <path fill-rule="evenodd" clip-rule="evenodd" d="M4 5.2C4 3.4 5.4 2 7.2 2H16c.3 0 .5.1.7.3l6.6 6.6c.2.2.3.4.3.7v13.2c0 1.8-1.4 3.2-3.2 3.2H7.2A3.2 3.2 0 014 22.8V5.2zm3.2-1.3c-.7 0-1.3.6-1.3 1.3v17.6c0 .7.6 1.3 1.3 1.3h13.2c.7 0 1.3-.6 1.3-1.3V10l-6-6.1H7.1z" fill="currentColor"/>
  <path fill-rule="evenodd" clip-rule="evenodd" d="M16 2c.5 0 1 .4 1 1v5.6h5.6a1 1 0 010 2H16a1 1 0 01-1-1V2.9c0-.5.5-.9 1-.9zM13.8 13c.5 0 1 .5 1 1v6.6a1 1 0 01-2 0V14c0-.5.5-1 1-1z" fill="currentColor"/>
  <path fill-rule="evenodd" clip-rule="evenodd" d="M9.5 17.3c0-.5.5-1 1-1H17a1 1 0 010 2h-6.6a1 1 0 01-1-1z" fill="currentColor"/>
</svg>

