<svg fill="none" xmlns="http://www.w3.org/2000/svg" viewBox="0 0 28 28">
  <path fill-rule="evenodd" clip-rule="evenodd" d="M2 5.5C2 4.1 3.1 3 4.5 3h19C24.9 3 26 4.1 26 5.5v2.3c0 1-.5 1.7-1.2 2.2v12.5c0 1.4-1.1 2.5-2.5 2.5H5.7a2.5 2.5 0 01-2.5-2.5V10A2.5 2.5 0 012 7.8V5.5zm3.2 4.8v12.2c0 .3.2.5.5.5h16.6c.3 0 .5-.2.5-.5V10.3H5.2zM4.5 5c-.3 0-.5.2-.5.5v2.3c0 .3.2.5.5.5h19c.3 0 .5-.2.5-.5V5.5c0-.3-.2-.5-.5-.5h-19zm4.8 8.3c0-.5.5-1 1-1h7.4a1 1 0 110 2h-7.4a1 1 0 01-1-1z" fill="currentColor"/>
</svg>