<svg width="24" height="24" viewBox="0 0 24 24" fill="none" xmlns="http://www.w3.org/2000/svg">
<g clip-path="url(#clip0_5036_7288)">
<path fill-rule="evenodd" clip-rule="evenodd" d="M13 10C13.5523 10 14 10.4477 14 11V20C14 20.5523 13.5523 21 13 21H4C3.44771 21 3 20.5523 3 20V11C3 10.4477 3.44771 10 4 10H13ZM16 11C16 9.34315 14.6569 8 13 8H4C2.34315 8 1 9.34315 1 11V20C1 21.6569 2.34315 23 4 23H13C14.6569 23 16 21.6569 16 20V11Z" fill="#817D78"/>
<path fill-rule="evenodd" clip-rule="evenodd" d="M20 3C20.2652 3 20.5196 3.10536 20.7071 3.29289C20.8946 3.48043 21 3.73478 21 4V13C21 13.2652 20.8946 13.5196 20.7071 13.7071C20.5196 13.8946 20.2652 14 20 14H19C18.4477 14 18 14.4477 18 15C18 15.5523 18.4477 16 19 16H20C20.7956 16 21.5587 15.6839 22.1213 15.1213C22.6839 14.5587 23 13.7956 23 13V4C23 3.20435 22.6839 2.44129 22.1213 1.87868C21.5587 1.31607 20.7956 1 20 1H11C10.2044 1 9.44129 1.31607 8.87868 1.87868C8.31607 2.44129 8 3.20435 8 4V5C8 5.55228 8.44771 6 9 6C9.55229 6 10 5.55228 10 5V4C10 3.73478 10.1054 3.48043 10.2929 3.29289C10.4804 3.10536 10.7348 3 11 3H20Z" fill="#817D78"/>
</g>
<defs>
<clipPath id="clip0_5036_7288">
<rect width="24" height="24" fill="white" transform="matrix(-1 0 0 1 24 0)"/>
</clipPath>
</defs>
</svg>
