<?xml version="1.0" encoding="UTF-8"?>
<svg width="33px" height="31px" viewBox="0 0 33 31" version="1.1" xmlns="http://www.w3.org/2000/svg" xmlns:xlink="http://www.w3.org/1999/xlink">
    <!-- Generator: Sketch 46.1 (44463) - http://www.bohemiancoding.com/sketch -->
    <title>Group</title>
    <desc>Created with Sketch.</desc>
    <defs></defs>
    <g id="Welcome" stroke="none" stroke-width="1" fill="none" fill-rule="evenodd">
        <g id="Menu" transform="translate(-368.000000, -18.000000)" fill="#FFFFFF">
            <g id="Group-5" transform="translate(-6.000000, -3.000000)">
                <g id="Group" transform="translate(374.000000, 21.000000)">
                    <polygon id="Line-Copy" fill-rule="nonzero" points="0 12.0692097 32.3850892 22 33 18.9307903 0.614910812 9"></polygon>
                    <path d="M7,0.455882353 C7,0.151959265 7.14613633,0 7.43841336,0 L17.4780793,0 C22.5929275,0 25.8371539,2.20340934 27.2108559,6.61029412 C27.3277668,7.03578644 27.437369,7.47646831 27.539666,7.93235294 C27.6419629,8.38823757 27.7296447,8.95048685 27.802714,9.61911765 C27.8757832,10.2877484 27.926931,11.0931325 27.9561587,12.0352941 C27.9853864,12.9774557 28,14.1323461 28,15.5 C28,16.8676539 27.9853864,18.0225443 27.9561587,18.9647059 C27.926931,19.9068675 27.8757832,20.7122516 27.802714,21.3808824 C27.7296447,22.0495131 27.6419629,22.6117624 27.539666,23.0676471 C27.437369,23.5235317 27.3277668,23.9642136 27.2108559,24.3897059 C25.8371539,28.7965907 22.5929275,31 17.4780793,31 L7.43841336,31 C7.14613633,31 7,30.8480407 7,30.5441176 L7,0.455882353 Z M10.9018789,26.9426471 C10.9018789,27.1250009 10.9895607,27.2161765 11.1649269,27.2161765 L16.6450939,27.2161765 C18.4572116,27.2161765 19.9185748,26.8894641 21.0292276,26.2360294 C22.1398803,25.5825948 22.9436301,24.496086 23.440501,22.9764706 C23.5281842,22.7029398 23.6158659,22.3838254 23.7035491,22.0191176 C23.7912322,21.6544099 23.8569935,21.1909342 23.9008351,20.6286765 C23.9446766,20.0664188 23.9812107,19.3750041 24.0104384,18.5544118 C24.0396661,17.7338194 24.0542797,16.7156924 24.0542797,15.5 C24.0542797,14.2843076 24.0396661,13.2661806 24.0104384,12.4455882 C23.9812107,11.6249959 23.9446766,10.9335812 23.9008351,10.3713235 C23.8569935,9.80906582 23.7912322,9.34559006 23.7035491,8.98088235 C23.6158659,8.61617465 23.5281842,8.29706019 23.440501,8.02352941 C22.9436301,6.50391397 22.1398803,5.41740523 21.0292276,4.76397059 C19.9185748,4.11053595 18.4572116,3.78382353 16.6450939,3.78382353 L11.1649269,3.78382353 C10.9895607,3.78382353 10.9018789,3.87499909 10.9018789,4.05735294 L10.9018789,26.9426471 Z" id="D"></path>
                </g>
            </g>
        </g>
    </g>
</svg>