<svg width="24" height="24" viewBox="0 0 24 24" fill="none" xmlns="http://www.w3.org/2000/svg">
<path fill-rule="evenodd" clip-rule="evenodd" d="M3 16C3.55228 16 4 16.4477 4 17V20C4 20.5523 4.44772 21 5 21H19C19.5523 21 20 20.5523 20 20V17C20 16.4477 20.4477 16 21 16C21.5523 16 22 16.4477 22 17V20C22 21.6569 20.6569 23 19 23H5C3.34315 23 2 21.6569 2 20V17C2 16.4477 2.44772 16 3 16Z" fill="black"/>
<path fill-rule="evenodd" clip-rule="evenodd" d="M7.29289 11.2929C7.68342 10.9024 8.31658 10.9024 8.70711 11.2929L12 14.5858L15.2929 11.2929C15.6834 10.9024 16.3166 10.9024 16.7071 11.2929C17.0976 11.6834 17.0976 12.3166 16.7071 12.7071L12.7071 16.7071C12.3166 17.0976 11.6834 17.0976 11.2929 16.7071L7.29289 12.7071C6.90237 12.3166 6.90237 11.6834 7.29289 11.2929Z" fill="black"/>
<path fill-rule="evenodd" clip-rule="evenodd" d="M12 1C12.5523 1 13 1.44772 13 2V16C13 16.5523 12.5523 17 12 17C11.4477 17 11 16.5523 11 16V2C11 1.44772 11.4477 1 12 1Z" fill="black"/>
</svg>
