<svg width="26" height="24" viewBox="0 0 26 24" fill="none" xmlns="http://www.w3.org/2000/svg">
<path fill-rule="evenodd" clip-rule="evenodd" d="M8.29289 17.2929C8.68342 16.9024 9.31658 16.9024 9.70711 17.2929L13 20.5858L16.2929 17.2929C16.6834 16.9024 17.3166 16.9024 17.7071 17.2929C18.0976 17.6834 18.0976 18.3166 17.7071 18.7071L13.7071 22.7071C13.3166 23.0976 12.6834 23.0976 12.2929 22.7071L8.29289 18.7071C7.90237 18.3166 7.90237 17.6834 8.29289 17.2929Z" fill="#9E9A94"/>
<path fill-rule="evenodd" clip-rule="evenodd" d="M13 12C13.5523 12 14 12.4477 14 13V22C14 22.5523 13.5523 23 13 23C12.4477 23 12 22.5523 12 22V13C12 12.4477 12.4477 12 13 12Z" fill="#9E9A94"/>
<path fill-rule="evenodd" clip-rule="evenodd" d="M2.01031 7.82818C3.73368 4.52209 7.31707 2.62087 11.0209 3.04746C14.4628 3.44389 17.3464 5.77429 18.4807 9L18.9993 9C21.6163 8.9983 23.9333 10.693 24.7238 13.1878C25.5143 15.6829 24.5962 18.4025 22.4553 19.908C22.0035 20.2257 21.3797 20.117 21.0621 19.6652C20.7444 19.2135 20.8531 18.5897 21.3048 18.272C22.7322 17.2683 23.3442 15.4552 22.8172 13.7919C22.2901 12.1285 20.7457 10.9986 19.0008 11L17.7401 11C17.2835 11 16.8849 10.6908 16.7714 10.2485C16.0507 7.43975 13.6728 5.36612 10.792 5.03433C7.9113 4.70253 5.12422 6.18126 3.78382 8.75267C2.44341 11.3241 2.82723 14.4557 4.74894 16.6273C5.11494 17.0409 5.07636 17.6729 4.66277 18.0389C4.24917 18.4049 3.61719 18.3663 3.25118 17.9527C0.780412 15.1607 0.286933 11.1343 2.01031 7.82818Z" fill="#9E9A94"/>
</svg>
