<svg width="36" height="36" viewBox="0 0 36 36" fill="none" xmlns="http://www.w3.org/2000/svg">
<path d="M9 6H21C21.5523 6 22 6.44772 22 7V9H24V7C24 5.34315 22.6569 4 21 4H9C7.34315 4 6 5.34315 6 7V25C6 26.6569 7.34315 28 9 28H21C22.6569 28 24 26.6569 24 25V24H22V25C22 25.5523 21.5523 26 21 26H9C8.44772 26 8 25.5523 8 25V7C8 6.44772 8.44772 6 9 6Z" fill="#E2E1DF"/>
<path fill-rule="evenodd" clip-rule="evenodd" d="M4.87223 10.0596C4.24773 10.0596 3.73334 10.5696 3.73334 11.2088V28.9175C3.73334 29.5567 4.24773 30.0667 4.87223 30.0667H17.0211C17.6456 30.0667 18.16 29.5567 18.16 28.9175V26.9403H20.16V28.9175C20.16 30.6522 18.7592 32.0667 17.0211 32.0667H4.87223C3.13417 32.0667 1.73334 30.6522 1.73334 28.9175V11.2088C1.73334 9.47405 3.13417 8.05963 4.87223 8.05963H6.84001V10.0596H4.87223Z" fill="#E2E1DF"/>
<path fill-rule="evenodd" clip-rule="evenodd" d="M15 16.4405C15 11.7789 18.7789 8 23.4405 8C28.102 8 31.881 11.7789 31.881 16.4405C31.881 18.4109 31.2058 20.2236 30.0741 21.6599L34.5643 26.15C34.9548 26.5406 34.9548 27.1737 34.5643 27.5642C34.1737 27.9548 33.5406 27.9548 33.15 27.5643L28.6599 23.0741C27.2236 24.2058 25.4109 24.8809 23.4405 24.8809C18.7789 24.8809 15 21.102 15 16.4405ZM28.0579 20.9304C28.035 20.9495 28.0128 20.9698 27.9913 20.9913C27.9698 21.0128 27.9495 21.035 27.9304 21.0579C26.7703 22.1861 25.1865 22.8809 23.4405 22.8809C19.8835 22.8809 17 19.9974 17 16.4405C17 12.8835 19.8835 10 23.4405 10C26.9975 10 29.881 12.8835 29.881 16.4405C29.881 18.1865 29.1861 19.7703 28.0579 20.9304Z" fill="#E2E1DF"/>
</svg>
