<svg width="36" height="36" viewBox="0 0 36 36" fill="none" xmlns="http://www.w3.org/2000/svg">
<path d="M7 8H19C19.5523 8 20 8.44772 20 9V11H22V9C22 7.34315 20.6569 6 19 6H7C5.34315 6 4 7.34315 4 9V27C4 28.6569 5.34315 30 7 30H19C20.6569 30 22 28.6569 22 27V26H20V27C20 27.5523 19.5523 28 19 28H7C6.44772 28 6 27.5523 6 27V9C6 8.44772 6.44772 8 7 8Z" fill="#E2E1DF"/>
<path fill-rule="evenodd" clip-rule="evenodd" d="M13 18.4405C13 13.7789 16.7789 10 21.4405 10C26.102 10 29.881 13.7789 29.881 18.4405C29.881 20.4109 29.2058 22.2236 28.0741 23.6599L32.5643 28.15C32.9548 28.5406 32.9548 29.1737 32.5643 29.5642C32.1737 29.9548 31.5406 29.9548 31.15 29.5643L26.6599 25.0741C25.2236 26.2058 23.4109 26.8809 21.4405 26.8809C16.7789 26.8809 13 23.102 13 18.4405ZM26.0579 22.9304C26.035 22.9495 26.0128 22.9698 25.9913 22.9913C25.9698 23.0128 25.9495 23.035 25.9304 23.0579C24.7703 24.1861 23.1865 24.8809 21.4405 24.8809C17.8835 24.8809 15 21.9974 15 18.4405C15 14.8835 17.8835 12 21.4405 12C24.9975 12 27.881 14.8835 27.881 18.4405C27.881 20.1865 27.1861 21.7703 26.0579 22.9304Z" fill="#E2E1DF"/>
</svg>
