<svg width="24" height="24" viewBox="0 0 24 24" fill="none" xmlns="http://www.w3.org/2000/svg">
<path fill-rule="evenodd" clip-rule="evenodd" d="M3.25 5.85C3.25 4.96634 3.96634 4.25 4.85 4.25H10.375C10.5754 4.25 10.7675 4.33023 10.9084 4.47278L12.8132 6.4H18.2375C19.1212 6.4 19.8375 7.11633 19.8375 8V10C19.8375 10.4142 19.5017 10.75 19.0875 10.75H6.72508L4.73173 19.6145C4.64788 19.9874 4.29707 20.2376 3.91722 20.1954C3.53738 20.1532 3.25 19.8322 3.25 19.45V5.85ZM4.85 5.75C4.79477 5.75 4.75 5.79477 4.75 5.85V12.6961L5.39327 9.83546C5.47024 9.49319 5.77418 9.25 6.125 9.25H18.3375V8C18.3375 7.94476 18.2927 7.9 18.2375 7.9H12.5C12.2996 7.9 12.1075 7.81977 11.9666 7.67722L10.0618 5.75H4.85Z" fill="#817D78"/>
<path fill-rule="evenodd" clip-rule="evenodd" d="M5.31229 9.84135C5.38698 9.49626 5.69224 9.25 6.04532 9.25H21C21.2222 9.25 21.4329 9.34848 21.5754 9.5189C21.7179 9.68933 21.7775 9.91415 21.7382 10.1328L20.0382 19.5828C19.9739 19.9401 19.663 20.2 19.3 20.2H4.00001C3.77324 20.2 3.55865 20.0974 3.41627 19.9209C3.27389 19.7444 3.21901 19.513 3.26698 19.2914L5.31229 9.84135ZM6.65036 10.75L4.9297 18.7H18.6729L20.103 10.75H6.65036Z" fill="#817D78"/>
</svg>
