<svg width="24" height="24" viewBox="0 0 24 24" fill="none" xmlns="http://www.w3.org/2000/svg">
<g clip-path="url(#clip0_4605_12359)">
<path fill-rule="evenodd" clip-rule="evenodd" d="M1.25 4.5C1.25 3.5335 2.0335 2.75 3 2.75H9.5C9.72258 2.75 9.93367 2.84887 10.0762 3.01986L12.3513 5.75H18.75C19.7165 5.75 20.5 6.53349 20.5 7.5V10.5C20.5 10.9142 20.1642 11.25 19.75 11.25H5.08558L2.72761 20.6819C2.63574 21.0494 2.2843 21.2907 1.90836 21.2444C1.53242 21.1981 1.25 20.8788 1.25 20.5V4.5ZM3 4.25C2.86193 4.25 2.75 4.36193 2.75 4.5V14.4077L3.77239 10.3181C3.85586 9.98422 4.15585 9.75 4.5 9.75H19V7.5C19 7.36191 18.8881 7.25 18.75 7.25H12C11.7774 7.25 11.5663 7.15113 11.4238 6.98014L9.14872 4.25H3Z" fill="#817D78"/>
<path fill-rule="evenodd" clip-rule="evenodd" d="M3.67707 10.3245C3.75816 9.98753 4.05963 9.75 4.40626 9.75H22C22.2247 9.75 22.4376 9.85074 22.58 10.0245C22.7225 10.1983 22.7795 10.4268 22.7354 10.6471L20.7354 20.6471C20.6653 20.9977 20.3575 21.25 20 21.25H2.00001C1.77022 21.25 1.55311 21.1447 1.4109 20.9642C1.26869 20.7837 1.21706 20.5479 1.27082 20.3245L3.67707 10.3245ZM4.9972 11.25L2.95188 19.75H19.3852L21.0852 11.25H4.9972Z" fill="#817D78"/>
</g>
<defs>
<clipPath id="clip0_4605_12359">
<rect width="24" height="24" fill="white"/>
</clipPath>
</defs>
</svg>
