<svg width="24" height="100" viewBox="0 0 24 100" fill="none" xmlns="http://www.w3.org/2000/svg">
<g clip-path="url(#clip0_4939_3085)">
<path fill-rule="evenodd" clip-rule="evenodd" d="M3.25 0.5L3.25 0L4.75 6.55671e-08L4.75 0.5L3.25 0.5ZM3.25 2.5L3.25 1.5L4.75 1.5L4.75 2.5L3.25 2.5ZM3.25 4.5L3.25 3.5L4.75 3.5L4.75 4.5L3.25 4.5ZM3.25 6.5L3.25 5.5L4.75 5.5L4.75 6.5L3.25 6.5ZM3.25 8.5L3.25 7.5L4.75 7.5L4.75 8.5L3.25 8.5ZM3.25 10.5L3.25 9.5L4.75 9.5L4.75 10.5L3.25 10.5ZM3.25 12.5L3.25 11.5L4.75 11.5L4.75 12.5L3.25 12.5ZM3.25 14.5L3.25 13.5L4.75 13.5L4.75 14.5L3.25 14.5ZM3.25 16.5L3.25 15.5L4.75 15.5L4.75 16.5L3.25 16.5ZM3.25 18.5L3.25 17.5L4.75 17.5L4.75 18.5L3.25 18.5ZM3.25 20.5L3.25 19.5L4.75 19.5L4.75 20.5L3.25 20.5ZM3.25 22.5L3.25 21.5L4.75 21.5L4.75 22.5L3.25 22.5ZM3.25 24.5L3.25 23.5L4.75 23.5L4.75 24.5L3.25 24.5ZM3.25 26.5L3.25 25.5L4.75 25.5L4.75 26.5L3.25 26.5ZM3.25 28.5L3.25 27.5L4.75 27.5L4.75 28.5L3.25 28.5ZM3.25 30.5L3.25 29.5L4.75 29.5L4.75 30.5L3.25 30.5ZM3.25 32.5L3.25 31.5L4.75 31.5L4.75 32.5L3.25 32.5ZM3.25 34.5L3.25 33.5L4.75 33.5L4.75 34.5L3.25 34.5ZM3.25 36.5L3.25 35.5L4.75 35.5L4.75 36.5L3.25 36.5ZM3.25 38.5L3.25 37.5L4.75 37.5L4.75 38.5L3.25 38.5ZM3.25 40.5L3.25 39.5L4.75 39.5L4.75 40.5L3.25 40.5ZM3.25 42.5L3.25 41.5L4.75 41.5L4.75 42.5L3.25 42.5ZM3.25 44.5L3.25 43.5L4.75 43.5L4.75 44.5L3.25 44.5ZM3.25 46.5L3.25 45.5L4.75 45.5L4.75 46.5L3.25 46.5ZM3.25 48.5L3.25 47.5L4.75 47.5L4.75 48.5L3.25 48.5ZM3.25 50.5L3.25 49.5L4.75 49.5L4.75 50.5L3.25 50.5ZM3.25 52.5L3.25 51.5L4.75 51.5L4.75 52.5L3.25 52.5ZM3.25 54.5L3.25 53.5L4.75 53.5L4.75 54.5L3.25 54.5ZM3.25 56.5L3.25 55.5L4.75 55.5L4.75 56.5L3.25 56.5ZM3.25 58.5L3.25 57.5L4.75 57.5L4.75 58.5L3.25 58.5ZM3.25 60.5L3.25 59.5L4.75 59.5L4.75 60.5L3.25 60.5ZM3.25 62.5L3.25 61.5L4.75 61.5L4.75 62.5L3.25 62.5ZM3.25 64.5L3.25 63.5L4.75 63.5L4.75 64.5L3.25 64.5ZM3.25 66.5L3.25 65.5L4.75 65.5L4.75 66.5L3.25 66.5ZM3.25 68.5L3.25 67.5L4.75 67.5L4.75 68.5L3.25 68.5ZM3.25 70.5L3.25 69.5L4.75 69.5L4.75 70.5L3.25 70.5ZM3.25 72.5L3.25 71.5L4.75 71.5L4.75 72.5L3.25 72.5ZM3.25 74.5L3.25 73.5L4.75 73.5L4.75 74.5L3.25 74.5ZM3.25 76.5L3.25 75.5L4.75 75.5L4.75 76.5L3.25 76.5ZM3.25 78.5L3.25 77.5L4.75 77.5L4.75 78.5L3.25 78.5ZM3.25 80.5L3.25 79.5L4.75 79.5L4.75 80.5L3.25 80.5ZM3.25 82.5L3.25 81.5L4.75 81.5L4.75 82.5L3.25 82.5ZM3.25 84.5L3.25 83.5L4.75 83.5L4.75 84.5L3.25 84.5ZM3.25 86.5L3.25 85.5L4.75 85.5L4.75 86.5L3.25 86.5ZM3.25 88.5L3.25 87.5L4.75 87.5L4.75 88.5L3.25 88.5ZM3.25 90.5L3.25 89.5L4.75 89.5L4.75 90.5L3.25 90.5ZM3.25 92.5L3.25 91.5L4.75 91.5L4.75 92.5L3.25 92.5ZM3.25 94.5L3.25 93.5L4.75 93.5L4.75 94.5L3.25 94.5ZM3.25 96.5L3.25 95.5L4.75 95.5L4.75 96.5L3.25 96.5ZM3.25 98.5L3.25 97.5L4.75 97.5L4.75 98.5L3.25 98.5ZM3.25 100L3.25 99.5L4.75 99.5L4.75 100L3.25 100Z" fill="#817D78"/>
</g>
<defs>
<clipPath id="clip0_4939_3085">
<rect width="24" height="100" fill="white"/>
</clipPath>
</defs>
</svg>
