<svg width="24" height="24" viewBox="0 0 24 24" fill="none" xmlns="http://www.w3.org/2000/svg">
<path fill-rule="evenodd" clip-rule="evenodd" d="M3.25 4.96333C3.25 4.01709 4.01709 3.25 4.96333 3.25H11.225C11.3916 3.25 11.5534 3.30545 11.685 3.40761L13.8903 5.12H20.0367C20.9829 5.12 21.75 5.88707 21.75 6.83333V9.1C21.75 9.51421 21.4142 9.85 21 9.85C20.5858 9.85 20.25 9.51421 20.25 9.1V6.83333C20.25 6.7155 20.1545 6.62 20.0367 6.62H13.6333C13.4668 6.62 13.3049 6.56455 13.1734 6.46239L10.968 4.75H4.96333C4.84551 4.75 4.75 4.84551 4.75 4.96333V9.1C4.75 9.51421 4.41421 9.85 4 9.85C3.58579 9.85 3.25 9.51421 3.25 9.1V4.96333Z" fill="#817D78"/>
<path fill-rule="evenodd" clip-rule="evenodd" d="M3.25 9.09998C3.25 8.68576 3.58579 8.34998 4 8.34998H21C21.4142 8.34998 21.75 8.68576 21.75 9.09998V20.3767C21.75 20.7909 21.4142 21.1267 21 21.1267H4C3.58579 21.1267 3.25 20.7909 3.25 20.3767V9.09998ZM4.75 9.84998V19.6267H20.25V9.84998H4.75Z" fill="#817D78"/>
</svg>
