<svg width="24" height="24" viewBox="0 0 24 24" fill="none" xmlns="http://www.w3.org/2000/svg">
<path fill-rule="evenodd" clip-rule="evenodd" d="M3.25 5.85C3.25 4.96634 3.96634 4.25 4.85 4.25H10.375C10.5416 4.25 10.7034 4.30545 10.835 4.40761L12.757 5.9H18.15C19.0337 5.9 19.75 6.61633 19.75 7.5V9.5C19.75 9.91421 19.4142 10.25 19 10.25C18.5858 10.25 18.25 9.91421 18.25 9.5V7.5C18.25 7.44476 18.2052 7.4 18.15 7.4H12.5C12.3334 7.4 12.1716 7.34455 12.04 7.24239L10.118 5.75H4.85C4.79477 5.75 4.75 5.79477 4.75 5.85V9.5C4.75 9.91421 4.41421 10.25 4 10.25C3.58579 10.25 3.25 9.91421 3.25 9.5V5.85Z" fill="#817D78"/>
<path fill-rule="evenodd" clip-rule="evenodd" d="M3.25 9.5C3.25 9.08579 3.58579 8.75 4 8.75H19C19.4142 8.75 19.75 9.08579 19.75 9.5V19.45C19.75 19.8642 19.4142 20.2 19 20.2H4C3.58579 20.2 3.25 19.8642 3.25 19.45V9.5ZM4.75 10.25V18.7H18.25V10.25H4.75Z" fill="#817D78"/>
</svg>
