<svg width="28" height="28" viewBox="0 0 28 28" fill="none" xmlns="http://www.w3.org/2000/svg">
<path fill-rule="evenodd" clip-rule="evenodd" d="M5 7C5 6.44772 5.44772 6 6 6H22C22.5523 6 23 6.44772 23 7C23 7.55228 22.5523 8 22 8H6C5.44772 8 5 7.55228 5 7Z" fill="#9E9A94"/>
<path fill-rule="evenodd" clip-rule="evenodd" d="M5 14C5 13.4477 5.44772 13 6 13H22C22.5523 13 23 13.4477 23 14C23 14.5523 22.5523 15 22 15H6C5.44772 15 5 14.5523 5 14Z" fill="#9E9A94"/>
<path fill-rule="evenodd" clip-rule="evenodd" d="M5 21C5 20.4477 5.44772 20 6 20H22C22.5523 20 23 20.4477 23 21C23 21.5523 22.5523 22 22 22H6C5.44772 22 5 21.5523 5 21Z" fill="#9E9A94"/>
</svg>
