<svg width="16" height="16" viewBox="0 0 16 16" fill="none" xmlns="http://www.w3.org/2000/svg">
<path d="M6.66666 8.66666C7.24596 9.44113 8.13307 9.9258 9.09776 9.99489C10.0624 10.064 11.0096 9.71067 11.6933 9.02666L13.6933 7.02666C14.9566 5.71873 14.9385 3.63972 13.6527 2.35394C12.3669 1.06816 10.2879 1.05009 8.97999 2.31333L7.83332 3.45333" stroke="#3B3835" stroke-width="1" fill="none" stroke-linecap="round"  fill-rule="evenodd" stroke-linejoin="round"/>
<path d="M9.33334 7.33333C8.75404 6.55887 7.86693 6.0742 6.90224 6.00511C5.93756 5.93602 4.99043 6.28933 4.30668 6.97333L2.30668 8.97333C1.04344 10.2813 1.0615 12.3603 2.34728 13.6461C3.63306 14.9318 5.71208 14.9499 7.02001 13.6867L8.16001 12.5467" stroke="#3B3835" stroke-linecap="round" stroke-linejoin="round"/>
</svg>
