<svg width="24" height="24" viewBox="0 0 24 24" fill="none" xmlns="http://www.w3.org/2000/svg">
<path fill-rule="evenodd" clip-rule="evenodd" d="M12.6919 3.61918C14.8601 1.52295 18.3069 1.55295 20.4384 3.68656C22.5693 5.81963 22.5993 9.26825 20.5057 11.438L20.4935 11.4504L17.7783 14.1684C17.7783 14.1684 17.7783 14.1685 17.7782 14.1685C16.6449 15.3033 15.0748 15.8897 13.4753 15.775C11.8759 15.6604 10.4053 14.856 9.44518 13.5711C9.11458 13.1287 9.20523 12.502 9.64764 12.1714C10.09 11.8409 10.7167 11.9315 11.0473 12.3739C11.6601 13.1941 12.5984 13.707 13.6184 13.7802C14.6383 13.8533 15.6399 13.4794 16.3632 12.7551L16.3633 12.755L19.0721 10.0435C20.4029 8.65788 20.3819 6.45988 19.0235 5.10006C17.6652 3.74044 15.4704 3.71978 14.0869 5.05235L12.5356 6.59623C12.1441 6.98581 11.5109 6.98428 11.1214 6.59282C10.7318 6.20135 10.7333 5.56819 11.1248 5.17861L12.6816 3.62931L12.6919 3.61918Z" fill="#A19A91"/>
<path fill-rule="evenodd" clip-rule="evenodd" d="M6.33468 9.96443C7.46803 8.82961 9.03813 8.24324 10.6376 8.3579C12.237 8.47257 13.7076 9.27696 14.6677 10.5618C14.9983 11.0043 14.9077 11.6309 14.4653 11.9615C14.0228 12.2921 13.3962 12.2014 13.0656 11.759C12.4527 10.9389 11.5145 10.4259 10.4945 10.3528C9.4746 10.2797 8.473 10.6536 7.74973 11.3778L5.04079 14.0895C3.70995 15.4751 3.73095 17.6731 5.08941 19.0329C6.44733 20.3922 8.6414 20.4132 10.025 19.0815L11.5662 17.5388C11.9565 17.148 12.5897 17.1477 12.9804 17.5381C13.3711 17.9284 13.3715 18.5616 12.9811 18.9523L11.4334 20.5016L11.421 20.5138C9.2528 22.61 5.80594 22.58 3.67448 20.4464C1.54355 18.3133 1.51363 14.8647 3.60718 12.6949L3.61935 12.6825L6.33468 9.96443C6.33472 9.96439 6.33464 9.96448 6.33468 9.96443Z" fill="#A19A91"/>
</svg>
