<svg width="1100" height="1100" viewBox="0 0 1100 1100" fill="none" xmlns="http://www.w3.org/2000/svg">
<path fill-rule="evenodd" clip-rule="evenodd" d="M87.2559 367.402L43.2368 122.655L72.7631 117.345L113.463 343.634L192.514 296.63C198.665 292.973 206.448 293.559 211.982 298.097L332.966 397.304L454.65 250.955C457.88 247.07 462.67 244.824 467.722 244.824H650.242C655.084 244.824 659.695 246.888 662.921 250.499L803.19 407.53L917.822 502.923L1031.2 358.33L1054.8 376.841L933.172 531.966C927.259 539.507 916.286 540.673 908.92 534.544L809.686 451.964L795.301 604.905C794.805 610.179 791.878 614.921 787.385 617.729L584.935 744.26L716.143 853.469C723.528 859.616 724.355 870.657 717.968 877.835L618.704 989.397L596.292 969.455L686.624 867.931L550.737 754.827L336.251 628.086L351.512 602.258L559.187 724.975L766.034 595.696L781.755 428.558C781.654 428.451 781.555 428.342 781.457 428.232L644.423 274.824H473.82L347.779 426.412C341.806 433.597 331.153 434.614 323.928 428.689L200.01 327.076L112.676 379.004C102.475 385.07 89.3567 379.082 87.2559 367.402Z" fill="url(#paint0_angular)"/>
<path fill-rule="evenodd" clip-rule="evenodd" d="M87.2559 367.402L43.2368 122.655L72.7631 117.345L113.463 343.634L192.514 296.63C198.665 292.973 206.448 293.559 211.982 298.097L332.966 397.304L454.65 250.955C457.88 247.07 462.67 244.824 467.722 244.824H650.242C655.084 244.824 659.695 246.888 662.921 250.499L803.19 407.53L917.822 502.923L1031.2 358.33L1054.8 376.841L933.172 531.966C927.259 539.507 916.286 540.673 908.92 534.544L809.686 451.964L795.301 604.905C794.805 610.179 791.878 614.921 787.385 617.729L584.935 744.26L716.143 853.469C723.528 859.616 724.355 870.657 717.968 877.835L618.704 989.397L596.292 969.455L686.624 867.931L550.737 754.827L336.251 628.086L351.512 602.258L559.187 724.975L766.034 595.696L781.755 428.558C781.654 428.451 781.555 428.342 781.457 428.232L644.423 274.824H473.82L347.779 426.412C341.806 433.597 331.153 434.614 323.928 428.689L200.01 327.076L112.676 379.004C102.475 385.07 89.3567 379.082 87.2559 367.402Z" fill="url(#paint1_linear)"/>
<path fill-rule="evenodd" clip-rule="evenodd" d="M87.2559 367.402L43.2368 122.655L72.7631 117.345L113.463 343.634L192.514 296.63C198.665 292.973 206.448 293.559 211.982 298.097L332.966 397.304L454.65 250.955C457.88 247.07 462.67 244.824 467.722 244.824H650.242C655.084 244.824 659.695 246.888 662.921 250.499L803.19 407.53L917.822 502.923L1031.2 358.33L1054.8 376.841L933.172 531.966C927.259 539.507 916.286 540.673 908.92 534.544L809.686 451.964L795.301 604.905C794.805 610.179 791.878 614.921 787.385 617.729L584.935 744.26L716.143 853.469C723.528 859.616 724.355 870.657 717.968 877.835L618.704 989.397L596.292 969.455L686.624 867.931L550.737 754.827L336.251 628.086L351.512 602.258L559.187 724.975L766.034 595.696L781.755 428.558C781.654 428.451 781.555 428.342 781.457 428.232L644.423 274.824H473.82L347.779 426.412C341.806 433.597 331.153 434.614 323.928 428.689L200.01 327.076L112.676 379.004C102.475 385.07 89.3567 379.082 87.2559 367.402Z" fill="url(#paint2_linear)"/>
<path fill-rule="evenodd" clip-rule="evenodd" d="M87.2559 367.402L43.2368 122.655L72.7631 117.345L113.463 343.634L192.514 296.63C198.665 292.973 206.448 293.559 211.982 298.097L332.966 397.304L454.65 250.955C457.88 247.07 462.67 244.824 467.722 244.824H650.242C655.084 244.824 659.695 246.888 662.921 250.499L803.19 407.53L917.822 502.923L1031.2 358.33L1054.8 376.841L933.172 531.966C927.259 539.507 916.286 540.673 908.92 534.544L809.686 451.964L795.301 604.905C794.805 610.179 791.878 614.921 787.385 617.729L584.935 744.26L716.143 853.469C723.528 859.616 724.355 870.657 717.968 877.835L618.704 989.397L596.292 969.455L686.624 867.931L550.737 754.827L336.251 628.086L351.512 602.258L559.187 724.975L766.034 595.696L781.755 428.558C781.654 428.451 781.555 428.342 781.457 428.232L644.423 274.824H473.82L347.779 426.412C341.806 433.597 331.153 434.614 323.928 428.689L200.01 327.076L112.676 379.004C102.475 385.07 89.3567 379.082 87.2559 367.402Z" fill="url(#paint3_linear)"/>
<defs>
<radialGradient id="paint0_angular" cx="0" cy="0" r="1" gradientUnits="userSpaceOnUse" gradientTransform="translate(611 550) rotate(159.076) scale(793.848 757.835)">
<stop offset="0.0989583" stop-color="#9BE9AA"/>
<stop offset="0.552083" stop-color="#F48AD9" stop-opacity="0.67"/>
</radialGradient>
<linearGradient id="paint1_linear" x1="336.5" y1="74.5" x2="453.5" y2="278.5" gradientUnits="userSpaceOnUse">
<stop offset="0.197917" stop-color="#8AFFB4"/>
<stop offset="1" stop-color="#9EFFC1" stop-opacity="0.11"/>
</linearGradient>
<linearGradient id="paint2_linear" x1="1411" y1="284.5" x2="605" y2="938.5" gradientUnits="userSpaceOnUse">
<stop offset="0.265625" stop-color="#FFA3E7" stop-opacity="0.94"/>
<stop offset="0.598958" stop-color="#E746BE" stop-opacity="0"/>
</linearGradient>
<linearGradient id="paint3_linear" x1="1043" y1="550" x2="722" y2="471.5" gradientUnits="userSpaceOnUse">
<stop stop-color="#FF66D7" stop-opacity="0.52"/>
<stop offset="1" stop-color="white" stop-opacity="0"/>
</linearGradient>
</defs>
</svg>
