<svg width="1100" height="1100" viewBox="0 0 1100 1100" fill="none" xmlns="http://www.w3.org/2000/svg">
<path fill-rule="evenodd" clip-rule="evenodd" d="M33.3948 124.425L82.6052 115.575L120.751 327.666L203.68 278.357L331.627 383.274L455.058 234.824H662.328L810.155 400.316L916.305 488.651L1023.33 352.16L1062.67 383.012L923.89 560.011L817.866 471.781L804.007 619.133L601.955 745.415L743.988 863.635L626.175 996.044L588.821 962.808L672.283 869.005L544.958 763.028L331.163 636.695L356.6 593.649L559.042 713.273L756.541 589.836L771.39 431.973L639.947 284.824H478.51L338.324 453.426L199.092 339.256L84.3085 407.506L33.3948 124.425Z" fill="url(#paint0_angular)"/>
<path fill-rule="evenodd" clip-rule="evenodd" d="M33.3948 124.425L82.6052 115.575L120.751 327.666L203.68 278.357L331.627 383.274L455.058 234.824H662.328L810.155 400.316L916.305 488.651L1023.33 352.16L1062.67 383.012L923.89 560.011L817.866 471.781L804.007 619.133L601.955 745.415L743.988 863.635L626.175 996.044L588.821 962.808L672.283 869.005L544.958 763.028L331.163 636.695L356.6 593.649L559.042 713.273L756.541 589.836L771.39 431.973L639.947 284.824H478.51L338.324 453.426L199.092 339.256L84.3085 407.506L33.3948 124.425Z" fill="url(#paint1_linear)"/>
<path fill-rule="evenodd" clip-rule="evenodd" d="M33.3948 124.425L82.6052 115.575L120.751 327.666L203.68 278.357L331.627 383.274L455.058 234.824H662.328L810.155 400.316L916.305 488.651L1023.33 352.16L1062.67 383.012L923.89 560.011L817.866 471.781L804.007 619.133L601.955 745.415L743.988 863.635L626.175 996.044L588.821 962.808L672.283 869.005L544.958 763.028L331.163 636.695L356.6 593.649L559.042 713.273L756.541 589.836L771.39 431.973L639.947 284.824H478.51L338.324 453.426L199.092 339.256L84.3085 407.506L33.3948 124.425Z" fill="url(#paint2_linear)"/>
<path fill-rule="evenodd" clip-rule="evenodd" d="M33.3948 124.425L82.6052 115.575L120.751 327.666L203.68 278.357L331.627 383.274L455.058 234.824H662.328L810.155 400.316L916.305 488.651L1023.33 352.16L1062.67 383.012L923.89 560.011L817.866 471.781L804.007 619.133L601.955 745.415L743.988 863.635L626.175 996.044L588.821 962.808L672.283 869.005L544.958 763.028L331.163 636.695L356.6 593.649L559.042 713.273L756.541 589.836L771.39 431.973L639.947 284.824H478.51L338.324 453.426L199.092 339.256L84.3085 407.506L33.3948 124.425Z" fill="url(#paint3_linear)"/>
<defs>
<radialGradient id="paint0_angular" cx="0" cy="0" r="1" gradientUnits="userSpaceOnUse" gradientTransform="translate(611 550) rotate(159.076) scale(793.848 757.835)">
<stop offset="0.0989583" stop-color="#9BE9AA"/>
<stop offset="0.552083" stop-color="#F48AD9" stop-opacity="0.67"/>
</radialGradient>
<linearGradient id="paint1_linear" x1="336.5" y1="74.5" x2="453.5" y2="278.5" gradientUnits="userSpaceOnUse">
<stop offset="0.197917" stop-color="#8AFFB4"/>
<stop offset="1" stop-color="#9EFFC1" stop-opacity="0.11"/>
</linearGradient>
<linearGradient id="paint2_linear" x1="1411" y1="284.5" x2="605" y2="938.5" gradientUnits="userSpaceOnUse">
<stop offset="0.265625" stop-color="#FFA3E7" stop-opacity="0.94"/>
<stop offset="0.598958" stop-color="#E746BE" stop-opacity="0"/>
</linearGradient>
<linearGradient id="paint3_linear" x1="1043" y1="550" x2="722" y2="471.5" gradientUnits="userSpaceOnUse">
<stop stop-color="#FF66D7" stop-opacity="0.52"/>
<stop offset="1" stop-color="white" stop-opacity="0"/>
</linearGradient>
</defs>
</svg>
