<svg width="24" height="24" viewBox="0 0 24 24" fill="none" xmlns="http://www.w3.org/2000/svg">
<path fill-rule="evenodd" clip-rule="evenodd" d="M1.91997 8.20415L1.01581 3.17703L2.98422 2.823L3.63303 6.43035L4.40033 5.97411C4.76216 5.75897 5.21998 5.79346 5.54549 6.06038L7.48995 7.65484L9.53127 5.19974C9.72126 4.97124 10.003 4.83907 10.3002 4.83907H14.0434C14.3282 4.83907 14.5995 4.9605 14.7892 5.17289L17.6152 8.33653L19.3528 9.78258L21.2131 7.41011L22.787 8.64417L20.2915 11.8268C20.1247 12.0395 19.879 12.1756 19.6102 12.2042C19.3415 12.2327 19.0726 12.1513 18.8649 11.9784L17.8315 11.1185L17.661 12.9309C17.6319 13.2411 17.4597 13.5201 17.1954 13.6852L13.8828 15.7557L15.8404 17.3851C16.0487 17.5584 16.1777 17.8088 16.1979 18.079C16.2181 18.3492 16.1279 18.616 15.9478 18.8184L13.9044 21.115L12.4102 19.7855L13.7666 18.2611L11.6029 16.4602L7.29595 13.9152L8.31341 12.1933L12.1662 14.47L15.7161 12.2513L15.9747 9.50224L13.5958 6.83907H10.7692L8.39281 9.69721C8.04142 10.1198 7.41481 10.1797 6.98981 9.83115L4.81965 8.05162L3.41525 8.88667C3.13338 9.05427 2.78726 9.07302 2.48894 8.93685C2.19062 8.80068 1.97802 8.5269 1.91997 8.20415Z" fill="#817D78"/>
</svg>
