<svg width="180" height="40" viewBox="0 0 90 20" fill="none" xmlns="http://www.w3.org/2000/svg">
<g clip-path="url(#clip0)">
<path d="M2.77527 15.2412H7.95487C9.09892 15.2412 10.0651 14.9904 10.8534 14.4886C11.6486 14.0217 12.2695 13.4293 12.7159 12.7115C12.8834 12.4397 13.0263 12.1784 13.145 11.9275C13.2566 11.6696 13.3403 11.3769 13.3961 11.0494C13.5147 10.4013 13.574 9.25834 13.574 7.62062C13.574 6.08046 13.5356 4.99679 13.4589 4.36957C13.3612 3.74236 13.1275 3.14302 12.7578 2.57158C11.7254 0.871127 10.1767 0.013938 8.11183 0H2.77527V15.2412ZM5.08777 2.18479H7.85024C9.02218 2.15691 9.92906 2.5855 10.5708 3.47057C10.8847 3.82599 11.0836 4.28943 11.1673 4.86089C11.2301 5.43236 11.2615 6.38013 11.2615 7.70424C11.2615 9.06321 11.2301 9.99009 11.1673 10.4849C11.0975 10.9867 10.9336 11.4013 10.6755 11.7289C10.0895 12.6139 9.14774 13.0565 7.85024 13.0565H5.08777V2.18479Z" fill="#999999"/>
<path d="M22.8491 15.2412H25.036V7.82968C25.0221 6.50557 24.607 5.57172 23.7909 5.02814C22.9747 4.4985 21.883 4.24065 20.5156 4.25459C18.8973 4.2267 17.673 4.75635 16.8429 5.84353L18.5589 7.15021C18.7473 6.83659 19.0054 6.61359 19.3332 6.48118C19.6472 6.36968 20.0761 6.31393 20.6203 6.31393C22.1201 6.28605 22.8631 6.74948 22.8491 7.70424V8.84367H19.8251C18.667 8.85761 17.7881 9.17122 17.1882 9.78451C16.5882 10.3838 16.2883 11.14 16.2883 12.0529C16.2883 13.0077 16.6336 13.7917 17.3242 14.405C17.9799 15.0322 18.9147 15.3527 20.1284 15.3667C20.8679 15.3667 21.4469 15.2761 21.8656 15.0949C22.291 14.9207 22.605 14.6489 22.8072 14.2795H22.8491V15.2412ZM22.8491 11.4257C22.8491 12.2411 22.6782 12.7637 22.3364 12.9937C21.9598 13.2237 21.3145 13.3317 20.4006 13.3178C19.6751 13.3178 19.1554 13.1749 18.8415 12.8892C18.5136 12.6313 18.3496 12.3177 18.3496 11.9484C18.3357 11.1051 18.9635 10.6696 20.2331 10.6417H22.8491V11.4257Z" fill="#999999"/>
<path d="M29.0584 4.39048H27.9701V6.05259H29.0584V12.5651C29.0584 13.4223 29.3094 14.0774 29.8117 14.5304C30.3 15.0043 30.9278 15.2412 31.6952 15.2412H32.8358V13.1819H32.0197C31.4894 13.1958 31.2313 12.9275 31.2452 12.377V6.05259H32.8358V4.39048H31.2452V1.08716H29.0584V4.39048Z" fill="#999999"/>
<path d="M41.6718 15.2412H43.8587V7.82968C43.8446 6.50557 43.4297 5.57172 42.6134 5.02814C41.7972 4.4985 40.7055 4.24065 39.3383 4.25459C37.7199 4.2267 36.4956 4.75635 35.6655 5.84353L37.3815 7.15021C37.5698 6.83659 37.8279 6.61359 38.1558 6.48118C38.4698 6.36968 38.8988 6.31393 39.443 6.31393C40.9428 6.28605 41.6856 6.74948 41.6718 7.70424V8.84367H38.6476C37.4897 8.85761 36.6107 9.17122 36.0107 9.78451C35.4108 10.3838 35.1109 11.14 35.1109 12.0529C35.1109 13.0077 35.4562 13.7917 36.1469 14.405C36.8026 15.0322 37.7373 15.3527 38.9511 15.3667C39.6906 15.3667 40.2696 15.2761 40.6881 15.0949C41.1137 14.9207 41.4275 14.6489 41.6299 14.2795H41.6718V15.2412ZM41.6718 11.4257C41.6718 12.2411 41.5009 12.7637 41.1589 12.9937C40.7823 13.2237 40.137 13.3317 39.2231 13.3178C38.4978 13.3178 37.978 13.1749 37.664 12.8892C37.3363 12.6313 37.1723 12.3177 37.1723 11.9484C37.1583 11.1051 37.7861 10.6696 39.0558 10.6417H41.6718V11.4257Z" fill="#999999"/>
<path d="M47.7552 15.2412H49.9421V14.1018C50.6675 14.9172 51.6024 15.3388 52.7464 15.3667C53.423 15.3527 54.002 15.2168 54.4833 14.959C54.9716 14.7081 55.3659 14.3736 55.6658 13.9555C55.9658 13.614 56.1715 13.1505 56.2832 12.5651C56.3878 12.0076 56.4402 11.0877 56.4402 9.80541C56.4402 8.5022 56.3878 7.57533 56.2832 7.02477C56.1715 6.46725 55.9658 6.01774 55.6658 5.67627C55.0519 4.76333 54.0787 4.28943 52.7464 4.25459C52.1883 4.25459 51.6896 4.36957 51.2501 4.59955C50.7757 4.84346 50.3396 5.15708 49.9421 5.54037V0H47.7552V15.2412ZM52.0871 6.43936C52.6033 6.43936 53.0114 6.52648 53.3114 6.7007C53.6113 6.88887 53.8242 7.14672 53.9497 7.47427C54.0893 7.80183 54.1834 8.15724 54.2322 8.54053C54.2463 8.95171 54.2532 9.37334 54.2532 9.80541C54.2532 10.2166 54.2463 10.6173 54.2322 11.0076C54.1834 11.4187 54.0893 11.7881 53.9497 12.1156C53.8242 12.4292 53.6113 12.6871 53.3114 12.8892C53.0114 13.0843 52.6033 13.1819 52.0871 13.1819C51.5988 13.1819 51.2116 13.0774 50.9256 12.8683C50.6256 12.6662 50.406 12.4014 50.2664 12.0738C50.1338 11.7463 50.0466 11.3804 50.0048 10.9762C49.9629 10.579 49.9421 10.1887 49.9421 9.80541C49.9421 9.38728 49.9629 8.98655 50.0048 8.60326C50.0466 8.21996 50.1338 7.86453 50.2664 7.537C50.406 7.20944 50.6256 6.94463 50.9256 6.74253C51.2116 6.54042 51.5988 6.43936 52.0871 6.43936Z" fill="#999999"/>
<path d="M62.2935 14.8126L61.6972 16.6315C61.5995 16.9452 61.4286 17.1821 61.1844 17.3424C60.9402 17.4957 60.6751 17.5724 60.3893 17.5724H59.7509V19.6317H60.4729C61.1495 19.6317 61.7565 19.4819 62.2935 19.1822C62.8238 18.8686 63.2387 18.3041 63.5389 17.4887L68.2161 4.39047H65.8931L63.3295 11.9902H63.2877L60.7136 4.39047H58.4009L62.2935 14.8126Z" fill="#999999"/>
<path d="M70.8784 11.9275L69.3506 13.4223C70.7668 14.7185 72.3606 15.3667 74.1327 15.3667C75.4371 15.3527 76.508 15.0531 77.3449 14.4677C78.189 13.8962 78.618 13.0843 78.6321 12.032C78.6321 11.133 78.3984 10.3908 77.9309 9.8054C77.4288 9.20606 76.6124 8.86458 75.4825 8.78096L73.6827 8.64504C73.1524 8.5893 72.7827 8.46037 72.5735 8.25828C72.3432 8.07707 72.2351 7.86452 72.249 7.62061C72.249 7.23731 72.3921 6.9237 72.678 6.67979C72.9502 6.43588 73.4279 6.31393 74.1117 6.31393C74.7115 6.31393 75.2418 6.40104 75.7021 6.57525C76.1696 6.77039 76.6124 7.01779 77.0311 7.31746L78.3809 5.73897C77.8508 5.27902 77.2508 4.91315 76.5811 4.64136C76.2324 4.51592 75.8591 4.41835 75.4615 4.34865C75.0638 4.28593 74.614 4.25458 74.1117 4.25458C72.9536 4.25458 71.9981 4.53333 71.2446 5.09085C70.4702 5.64837 70.0761 6.48466 70.0621 7.5997C70.0761 8.52658 70.3761 9.24788 70.9621 9.76358C71.534 10.2932 72.277 10.5999 73.1909 10.6835L75.1161 10.8508C75.5207 10.8647 75.8453 10.9518 76.0893 11.1121C76.3266 11.2654 76.4451 11.5372 76.4451 11.9275C76.4451 12.3665 76.2463 12.708 75.8486 12.9519C75.451 13.1958 74.9383 13.3178 74.3105 13.3178C72.9084 13.3178 71.7643 12.8543 70.8784 11.9275Z" fill="#999999"/>
<path d="M82.2462 11.9275L80.7184 13.4223C82.1344 14.7185 83.7284 15.3667 85.5003 15.3667C86.8049 15.3527 87.8757 15.0531 88.7127 14.4677C89.5568 13.8962 89.9858 13.0843 89.9999 12.032C89.9999 11.133 89.7661 10.3908 89.2987 9.8054C88.7966 9.20606 87.9802 8.86458 86.8503 8.78096L85.0505 8.64504C84.5202 8.5893 84.1505 8.46037 83.9413 8.25828C83.711 8.07707 83.6029 7.86452 83.6168 7.62061C83.6168 7.23731 83.7599 6.9237 84.0458 6.67979C84.318 6.43588 84.7957 6.31393 85.4794 6.31393C86.0793 6.31393 86.6096 6.40104 87.0699 6.57525C87.5374 6.77039 87.9802 7.01779 88.3989 7.31746L89.7487 5.73897C89.2186 5.27902 88.6185 4.91315 87.9489 4.64136C87.6002 4.51592 87.2269 4.41835 86.8293 4.34865C86.4316 4.28593 85.9818 4.25458 85.4794 4.25458C84.3213 4.25458 83.3656 4.53333 82.6123 5.09085C81.838 5.64837 81.4439 6.48466 81.4299 7.5997C81.4439 8.52658 81.7439 9.24788 82.3299 9.76358C82.9018 10.2932 83.6448 10.5999 84.5586 10.6835L86.4839 10.8508C86.8885 10.8647 87.213 10.9518 87.4571 11.1121C87.6944 11.2654 87.8129 11.5372 87.8129 11.9275C87.8129 12.3665 87.6141 12.708 87.2164 12.9519C86.8187 13.1958 86.3061 13.3178 85.6783 13.3178C84.2762 13.3178 83.1321 12.8543 82.2462 11.9275Z" fill="#999999"/>
<path fill-rule="evenodd" clip-rule="evenodd" d="M15.0175 10.9386L-6.10352e-05 5.57354L0.721501 3.55252L15.739 8.91761L15.0175 10.9386Z" fill="#999999"/>
</g>
<defs>
<clipPath id="clip0">
<path d="M0 0H90V19.6317H0V0Z" fill="white"/>
</clipPath>
</defs>
</svg>
