<svg width="24" height="24" viewBox="0 0 24 24" fill="none" xmlns="http://www.w3.org/2000/svg">
<path fill-rule="evenodd" clip-rule="evenodd" d="M12 17C13.1046 17 14 14.7614 14 12C14 9.23858 13.1046 7 12 7C10.8954 7 10 9.23858 10 12C10 14.7614 10.8954 17 12 17Z" fill="#F0F0F0"/>
<path fill-rule="evenodd" clip-rule="evenodd" d="M19 15C20.1046 15 21 13.6569 21 12C21 10.3431 20.1046 9 19 9C17.8954 9 17 10.3431 17 12C17 13.6569 17.8954 15 19 15Z" fill="#F0F0F0"/>
<path fill-rule="evenodd" clip-rule="evenodd" d="M5 15C6.10457 15 7 13.6569 7 12C7 10.3431 6.10457 9 5 9C3.89543 9 3 10.3431 3 12C3 13.6569 3.89543 15 5 15Z" fill="#F0F0F0"/>
</svg>
