<svg width="24" height="24" viewBox="0 0 24 24" fill="none" xmlns="http://www.w3.org/2000/svg">
<path d="M21 12.79C20.8427 14.4922 20.2039 16.1144 19.1582 17.4668C18.1126 18.8192 16.7035 19.8458 15.0957 20.4265C13.4879 21.0073 11.748 21.1181 10.0795 20.7461C8.41101 20.3741 6.88299 19.5345 5.67422 18.3258C4.46545 17.117 3.62593 15.589 3.2539 13.9205C2.88187 12.252 2.99271 10.5121 3.57345 8.9043C4.1542 7.29651 5.18082 5.88737 6.53321 4.84175C7.88559 3.79614 9.50779 3.15731 11.21 3C10.2134 4.34827 9.73384 6.00945 9.85852 7.68141C9.98321 9.35338 10.7039 10.9251 11.8894 12.1106C13.0749 13.2961 14.6466 14.0168 16.3186 14.1415C17.9905 14.2662 19.6517 13.7866 21 12.79Z" fill="#5E5A56"/>
<path fill-rule="evenodd" clip-rule="evenodd" d="M12.0812 2.50901C12.2747 2.85239 12.2485 3.27742 12.0142 3.59439C11.1599 4.75005 10.7489 6.17392 10.8558 7.60703C10.9626 9.04015 11.5803 10.3873 12.5965 11.4035C13.6127 12.4197 14.9598 13.0374 16.3929 13.1442C17.8261 13.2511 19.2499 12.84 20.4056 11.9858C20.7226 11.7515 21.1476 11.7253 21.491 11.9188C21.8344 12.1123 22.032 12.4895 21.9957 12.882C21.821 14.7733 21.1111 16.5758 19.9494 18.0784C18.7876 19.5811 17.2219 20.7218 15.4354 21.3671C13.649 22.0123 11.7157 22.1355 9.86186 21.7221C8.00799 21.3087 6.31019 20.3759 4.96711 19.0329C3.62404 17.6898 2.69124 15.992 2.27787 14.1381C1.8645 12.2842 1.98766 10.351 2.63293 8.56456C3.2782 6.77813 4.4189 5.21241 5.92154 4.05062C7.42419 2.88883 9.22663 2.17901 11.118 2.00423C11.5105 1.96796 11.8876 2.16563 12.0812 2.50901ZM9.31638 4.43905C8.53877 4.7204 7.80559 5.12201 7.14487 5.63286C5.94275 6.56229 5.03019 7.81486 4.51398 9.24401C3.99776 10.6732 3.89924 12.2198 4.22993 13.7029C4.56063 15.186 5.30686 16.5442 6.38133 17.6187C7.45579 18.6931 8.81403 19.4394 10.2971 19.77C11.7802 20.1007 13.3268 20.0022 14.756 19.486C16.1851 18.9698 17.4377 18.0572 18.3671 16.8551C18.878 16.1944 19.2796 15.4612 19.5609 14.6836C18.5078 15.0646 17.3782 15.2232 16.2442 15.1387C14.3334 14.9962 12.5372 14.1726 11.1823 12.8177C9.82738 11.4628 9.00379 9.66658 8.86129 7.75577C8.77673 6.6218 8.93537 5.49217 9.31638 4.43905Z" fill="#817D78"/>
</svg>
