<svg width="28" height="28" viewBox="0 0 28 28" fill="none" xmlns="http://www.w3.org/2000/svg">
<path fill-rule="evenodd" clip-rule="evenodd" d="M3.26849 3.26849C3.62647 2.9105 4.20687 2.9105 4.56485 3.26849L24.7315 23.4352C25.0895 23.7931 25.0895 24.3735 24.7315 24.7315C24.3735 25.0895 23.7931 25.0895 23.4352 24.7315L3.26849 4.56485C2.9105 4.20687 2.9105 3.62647 3.26849 3.26849Z" fill="#A19A91"/>
<path d="M14.9499 24.0017C14.9499 24.554 14.5246 25.0017 14 25.0017C13.4754 25.0017 13.0501 24.554 13.0501 24.0017C13.0501 23.4494 13.4754 23.0017 14 23.0017C14.5246 23.0017 14.9499 23.4494 14.9499 24.0017Z" fill="#A19A91"/>
<path fill-rule="evenodd" clip-rule="evenodd" d="M17.6299 14.6231C17.86 14.1268 18.4287 13.9208 18.9002 14.163C19.7494 14.5993 20.5435 15.1456 21.264 15.7892C21.664 16.1465 21.7131 16.7776 21.3737 17.1987C21.0342 17.6198 20.4348 17.6715 20.0348 17.3142C19.435 16.7784 18.7739 16.3236 18.067 15.9604C17.5955 15.7181 17.3998 15.1194 17.6299 14.6231Z" fill="#A19A91"/>
<path fill-rule="evenodd" clip-rule="evenodd" d="M13.1979 13.9929C13.2865 14.5372 12.9392 15.0541 12.4221 15.1474C10.7786 15.4438 9.23908 16.193 7.95992 17.3189C7.55745 17.6732 6.95838 17.6169 6.62187 17.1932C6.28535 16.7695 6.33883 16.1388 6.74131 15.7845C8.27784 14.4321 10.1272 13.5321 12.1013 13.1761C12.6183 13.0828 13.1093 13.4485 13.1979 13.9929Z" fill="#A19A91"/>
<path fill-rule="evenodd" clip-rule="evenodd" d="M23.4217 13.7516C20.5215 11.0582 16.7059 9.7215 12.8509 10.0485C12.328 10.0929 11.8699 9.68255 11.8278 9.13205C11.7856 8.58155 12.1754 8.09932 12.6983 8.05497C17.0673 7.68436 21.3916 9.19927 24.6785 12.2518C25.0719 12.6172 25.1095 13.2491 24.7624 13.6633C24.4153 14.0774 23.8151 14.117 23.4217 13.7516Z" fill="#A19A91"/>
<path fill-rule="evenodd" clip-rule="evenodd" d="M9.29819 9.75486C9.49066 10.2686 9.25105 10.8494 8.76301 11.052C7.2298 11.6885 5.8139 12.6019 4.57903 13.751C4.18596 14.1168 3.58565 14.0778 3.2382 13.664C2.89075 13.2502 2.92774 12.6182 3.32081 12.2525C4.72132 10.9493 6.32715 9.91337 8.06601 9.19146C8.55406 8.98884 9.10572 9.24108 9.29819 9.75486Z" fill="#A19A91"/>
<path fill-rule="evenodd" clip-rule="evenodd" d="M16.7556 20.9269C15.1084 19.695 12.9011 19.695 11.254 20.9269C10.8263 21.2468 10.2333 21.1411 9.92944 20.6909C9.6256 20.2407 9.72598 19.6164 10.1537 19.2965C12.4597 17.5718 15.5498 17.5718 17.8559 19.2965C18.2835 19.6164 18.3839 20.2407 18.0801 20.6909C17.7762 21.1411 17.1832 21.2468 16.7556 20.9269Z" fill="#A19A91"/>
</svg>
