<svg width="28" height="28" viewBox="0 0 28 28" fill="none" xmlns="http://www.w3.org/2000/svg">
<path fill-rule="evenodd" clip-rule="evenodd" d="M20.1175 15.3157C16.5954 12.2274 11.4807 12.2274 7.95863 15.3157C7.55552 15.6692 6.95655 15.6117 6.6208 15.1873C6.28504 14.763 6.33964 14.1324 6.74274 13.779C10.9693 10.073 17.1069 10.073 21.3334 13.779C21.7365 14.1324 21.7911 14.763 21.4553 15.1873C21.1196 15.6117 20.5206 15.6692 20.1175 15.3157Z" fill="#A19A91"/>
<path fill-rule="evenodd" clip-rule="evenodd" d="M23.4219 11.7475C18.0373 6.75083 9.9627 6.75083 4.57805 11.7475C4.1845 12.1127 3.58424 12.0729 3.23733 11.6586C2.89043 11.2443 2.92824 10.6124 3.32179 10.2472C9.4244 4.58427 18.5756 4.58427 24.6782 10.2472C25.0718 10.6124 25.1096 11.2443 24.7627 11.6586C24.4158 12.0729 23.8155 12.1127 23.4219 11.7475Z" fill="#A19A91"/>
<path fill-rule="evenodd" clip-rule="evenodd" d="M16.7556 18.9226C15.1085 17.6906 12.9012 17.6906 11.2541 18.9226C10.8264 19.2424 10.2334 19.1367 9.92952 18.6865C9.62568 18.2363 9.72607 17.612 10.1537 17.2921C12.4598 15.5674 15.5499 15.5674 17.856 17.2921C18.2836 17.612 18.384 18.2363 18.0802 18.6865C17.7763 19.1367 17.1833 19.2424 16.7556 18.9226Z" fill="#A19A91"/>
<path d="M15.3489 22C15.3489 22.5523 14.9236 23 14.399 23C13.8743 23 13.4491 22.5523 13.4491 22C13.4491 21.4477 13.8743 21 14.399 21C14.9236 21 15.3489 21.4477 15.3489 22Z" fill="#A19A91"/>
</svg>
