<svg fill="none" xmlns="http://www.w3.org/2000/svg" viewBox="0 0 28 30">
  <path fill-rule="evenodd" clip-rule="evenodd" d="M5.9 7c-.7 0-1.2.6-1.2 1.2V26c0 .7.5 1.2 1.2 1.2H18c.6 0 1.2-.5 1.2-1.2v-2h2v2c0 1.8-1.4 3.2-3.2 3.2H6a3.1 3.1 0 01-3.2-3.2V8.2c0-1.7 1.4-3.1 3.2-3.1h2v2h-2z" fill="currentColor"/>
  <path fill-rule="evenodd" clip-rule="evenodd" d="M6.8 4.1c0-1.7 1.3-3.2 3-3.2h7.3c.3 0 .5.1.7.4L25 9c.2.1.3.4.3.6v12.1c0 1.7-1.3 3.2-3 3.2H9.8c-1.8 0-3-1.5-3-3.2V4.1zm3-1.2c-.4 0-1 .5-1 1.2v17.6c0 .8.6 1.2 1 1.2h12.4c.5 0 1-.4 1-1.2V11h-6.8a1 1 0 01-1-1V3H10zm7.6.9l5 5.2h-5V3.8z" fill="currentColor"/>
</svg>
