<svg width="24" height="24" viewBox="0 0 24 24" fill="none" xmlns="http://www.w3.org/2000/svg">
<path fill-rule="evenodd" clip-rule="evenodd" d="M0.90567 11.9056C0.90567 5.83051 5.83054 0.90564 11.9057 0.90564C17.9808 0.90564 22.9057 5.83051 22.9057 11.9056C22.9057 17.9808 17.9808 22.9056 11.9057 22.9056C5.83054 22.9056 0.90567 17.9808 0.90567 11.9056ZM11.9057 2.90564C6.93511 2.90564 2.90567 6.93508 2.90567 11.9056C2.90567 16.8762 6.93511 20.9056 11.9057 20.9056C16.8762 20.9056 20.9057 16.8762 20.9057 11.9056C20.9057 6.93508 16.8762 2.90564 11.9057 2.90564Z" fill="#6E6C68"/>
<path fill-rule="evenodd" clip-rule="evenodd" d="M16.8783 11.019C17.6116 11.4424 17.6116 12.5009 16.8783 12.9243L10.4283 16.6482C9.69496 17.0716 8.7783 16.5424 8.7783 15.6956L8.7783 8.24776C8.7783 7.40097 9.69497 6.87174 10.4283 7.29513L16.8783 11.019ZM14.5283 11.9717L10.7783 9.8066L10.7783 14.1367L14.5283 11.9717Z" fill="#6E6C68"/>
</svg>
