<svg fill="none" xmlns="http://www.w3.org/2000/svg" viewBox="0 0 28 28">
  <path fill-rule="evenodd" clip-rule="evenodd" d="M1 7a6 6 0 016-6h14a6 6 0 016 6v14a6 6 0 01-6 6H7a6 6 0 01-6-6V7zm6-4a4 4 0 00-4 4v14a4 4 0 004 4h14a4 4 0 004-4V7a4 4 0 00-4-4H7z" fill="currentColor"/>
  <path fill-rule="evenodd" clip-rule="evenodd" d="M14 8.2c.6 0 1 .4 1 1v9.6a1 1 0 11-2 0V9.2c0-.6.4-1 1-1z" fill="currentColor"/>
  <path fill-rule="evenodd" clip-rule="evenodd" d="M8.2 14c0-.6.4-1 1-1h9.6a1 1 0 010 2H9.2a1 1 0 01-1-1z" fill="currentColor"/>
</svg>