<svg width="24" height="24" viewBox="0 0 24 24" fill="none" xmlns="http://www.w3.org/2000/svg">
<path fill-rule="evenodd" clip-rule="evenodd" d="M17.3333 3.75C16.2748 3.75 15.4167 4.60812 15.4167 5.66667C15.4167 6.72521 16.2748 7.58333 17.3333 7.58333C18.3919 7.58333 19.25 6.72521 19.25 5.66667C19.25 4.60812 18.3919 3.75 17.3333 3.75ZM13.9167 5.66667C13.9167 3.77969 15.4464 2.25 17.3333 2.25C19.2203 2.25 20.75 3.77969 20.75 5.66667C20.75 7.55364 19.2203 9.08333 17.3333 9.08333C15.4464 9.08333 13.9167 7.55364 13.9167 5.66667Z" fill="#5E5A56"/>
<path fill-rule="evenodd" clip-rule="evenodd" d="M6.66667 9.97223C5.60812 9.97223 4.75 10.8303 4.75 11.8889C4.75 12.9474 5.60812 13.8056 6.66667 13.8056C7.72521 13.8056 8.58333 12.9474 8.58333 11.8889C8.58333 10.8303 7.72521 9.97223 6.66667 9.97223ZM3.25 11.8889C3.25 10.0019 4.77969 8.47223 6.66667 8.47223C8.55364 8.47223 10.0833 10.0019 10.0833 11.8889C10.0833 13.7759 8.55364 15.3056 6.66667 15.3056C4.77969 15.3056 3.25 13.7759 3.25 11.8889Z" fill="#5E5A56"/>
<path fill-rule="evenodd" clip-rule="evenodd" d="M17.3333 16.1945C16.2748 16.1945 15.4167 17.0526 15.4167 18.1111C15.4167 19.1697 16.2748 20.0278 17.3333 20.0278C18.3919 20.0278 19.25 19.1697 19.25 18.1111C19.25 17.0526 18.3919 16.1945 17.3333 16.1945ZM13.9167 18.1111C13.9167 16.2242 15.4464 14.6945 17.3333 14.6945C19.2203 14.6945 20.75 16.2242 20.75 18.1111C20.75 19.9981 19.2203 21.5278 17.3333 21.5278C15.4464 21.5278 13.9167 19.9981 13.9167 18.1111Z" fill="#5E5A56"/>
<path fill-rule="evenodd" clip-rule="evenodd" d="M8.32088 12.8535C8.52943 12.4956 8.98861 12.3746 9.3465 12.5831L15.4176 16.1209C15.7755 16.3294 15.8966 16.7886 15.688 17.1465C15.4795 17.5044 15.0203 17.6254 14.6624 17.4169L8.59128 13.8791C8.2334 13.6706 8.11233 13.2114 8.32088 12.8535Z" fill="#5E5A56"/>
<path fill-rule="evenodd" clip-rule="evenodd" d="M15.6789 6.63089C15.8877 6.98864 15.7669 7.4479 15.4091 7.65668L9.34691 11.1945C8.98916 11.4032 8.5299 11.2825 8.32112 10.9247C8.11235 10.567 8.23311 10.1077 8.59087 9.89892L14.6531 6.36115C15.0108 6.15237 15.4701 6.27314 15.6789 6.63089Z" fill="#5E5A56"/>
</svg>
