<svg width="24" height="24" viewBox="0 0 24 24" fill="none" xmlns="http://www.w3.org/2000/svg">
<path fill-rule="evenodd" clip-rule="evenodd" d="M3.11765 9.00001C3.11765 7.92793 3.98674 7.05884 5.05882 7.05884H10C10.1872 7.05884 10.3668 7.13321 10.4991 7.26559L14.205 10.9715C14.3374 11.1038 14.4118 11.2834 14.4118 11.4706V18.8824C14.4118 19.9544 13.5427 20.8235 12.4706 20.8235H5.05882C3.98674 20.8235 3.11765 19.9544 3.11765 18.8824V9.00001ZM5.05882 8.4706C4.76644 8.4706 4.52941 8.70763 4.52941 9.00001V18.8824C4.52941 19.1748 4.76644 19.4118 5.05882 19.4118H12.4706C12.763 19.4118 13 19.1748 13 18.8824V11.763L9.70761 8.4706H5.05882Z" fill="#6E6C68"/>
<path fill-rule="evenodd" clip-rule="evenodd" d="M10 7.05884C10.3898 7.05884 10.7059 7.37487 10.7059 7.76472V10.7647H13.7059C14.0957 10.7647 14.4118 11.0808 14.4118 11.4706C14.4118 11.8605 14.0957 12.1765 13.7059 12.1765H10C9.61015 12.1765 9.29411 11.8605 9.29411 11.4706V7.76472C9.29411 7.37487 9.61015 7.05884 10 7.05884Z" fill="#6E6C68"/>
<path fill-rule="evenodd" clip-rule="evenodd" d="M5.58823 14.5588C5.58823 14.169 5.90426 13.853 6.29411 13.853H11.2353C11.6251 13.853 11.9412 14.169 11.9412 14.5588C11.9412 14.9487 11.6251 15.2647 11.2353 15.2647H6.29411C5.90426 15.2647 5.58823 14.9487 5.58823 14.5588Z" fill="#6E6C68"/>
<path fill-rule="evenodd" clip-rule="evenodd" d="M5.58823 17.0294C5.58823 16.6396 5.90426 16.3235 6.29411 16.3235H11.2353C11.6251 16.3235 11.9412 16.6396 11.9412 17.0294C11.9412 17.4193 11.6251 17.7353 11.2353 17.7353H6.29411C5.90426 17.7353 5.58823 17.4193 5.58823 17.0294Z" fill="#6E6C68"/>
<path fill-rule="evenodd" clip-rule="evenodd" d="M5.58823 12.0882C5.58823 11.6984 5.90426 11.3824 6.29411 11.3824H7.5294C7.91925 11.3824 8.23528 11.6984 8.23528 12.0882C8.23528 12.4781 7.91925 12.7941 7.5294 12.7941H6.29411C5.90426 12.7941 5.58823 12.4781 5.58823 12.0882Z" fill="#6E6C68"/>
<path fill-rule="evenodd" clip-rule="evenodd" d="M17.2353 6.35295C17.2353 5.9631 16.9193 5.64706 16.5294 5.64706H12.6471C12.2572 5.64706 11.9412 5.9631 11.9412 6.35295C11.9412 6.74279 12.2572 7.05883 12.6471 7.05883H16.5294C16.9193 7.05883 17.2353 6.74279 17.2353 6.35295Z" fill="#6E6C68"/>
<path fill-rule="evenodd" clip-rule="evenodd" d="M17.2353 8.55885C17.2353 8.169 16.9193 7.85297 16.5294 7.85297H14.4118C14.0219 7.85297 13.7059 8.169 13.7059 8.55885C13.7059 8.9487 14.0219 9.26473 14.4118 9.26473H16.5294C16.9193 9.26473 17.2353 8.9487 17.2353 8.55885Z" fill="#6E6C68"/>
<path fill-rule="evenodd" clip-rule="evenodd" d="M17.2353 10.5882C17.2353 10.1984 16.9193 9.88235 16.5294 9.88235H16.1765C15.7866 9.88235 15.4706 10.1984 15.4706 10.5882C15.4706 10.9781 15.7866 11.2941 16.1765 11.2941H16.5294C16.9193 11.2941 17.2353 10.9781 17.2353 10.5882Z" fill="#6E6C68"/>
<path fill-rule="evenodd" clip-rule="evenodd" d="M17.2353 12.7059C17.2353 12.316 16.9193 12 16.5294 12H16.1765C15.7866 12 15.4706 12.316 15.4706 12.7059C15.4706 13.0957 15.7866 13.4118 16.1765 13.4118H16.5294C16.9193 13.4118 17.2353 13.0957 17.2353 12.7059Z" fill="#6E6C68"/>
<path fill-rule="evenodd" clip-rule="evenodd" d="M17.7139 14.8285C18.0026 14.8285 18.2424 14.5924 18.2424 14.2941V4.07419C18.2424 3.77587 18.0026 3.53979 17.7139 3.53979H10.7026C10.4139 3.53979 10.1741 3.77587 10.1741 4.07419V6.00002H8.76236V4.07419C8.76236 3.00253 9.62787 2.12802 10.7026 2.12802H17.7139C18.7886 2.12802 19.6541 3.00253 19.6541 4.07419V14.2941C19.6541 15.3658 18.7886 16.2403 17.7139 16.2403H15.4706V14.8285H17.7139Z" fill="#6E6C68"/>
<path fill-rule="evenodd" clip-rule="evenodd" d="M18.2442 17.2263C18.5199 17.502 18.5199 17.9489 18.2442 18.2246L17.1747 19.2941L18.2442 20.3636C18.5199 20.6393 18.5199 21.0862 18.2442 21.3619C17.9686 21.6375 17.5216 21.6375 17.246 21.3619L15.6773 19.7932C15.4017 19.5176 15.4017 19.0706 15.6773 18.795L17.246 17.2263C17.5216 16.9507 17.9686 16.9507 18.2442 17.2263Z" fill="#6E6C68"/>
<path fill-rule="evenodd" clip-rule="evenodd" d="M20.4214 14.7075C20.4855 14.3229 20.8491 14.0631 21.2337 14.1272C21.9678 14.2496 22.5936 14.6865 23.038 15.2184C23.4831 15.7511 23.793 16.4335 23.8506 17.1333C23.9093 17.8475 23.7019 18.6027 23.0818 19.1672C22.4764 19.7183 21.5736 20 20.4118 20H16.1765C15.7866 20 15.4706 19.684 15.4706 19.2941C15.4706 18.9043 15.7866 18.5882 16.1765 18.5882H20.4118C21.3676 18.5882 21.8766 18.3552 22.1315 18.1232C22.3716 17.9046 22.4731 17.6083 22.4435 17.249C22.4128 16.8753 22.2375 16.4621 21.9546 16.1235C21.6711 15.7841 21.3263 15.5739 21.0016 15.5198C20.6171 15.4557 20.3573 15.092 20.4214 14.7075Z" fill="#6E6C68"/>
</svg>
