<svg width="24" height="24" viewBox="0 0 24 24" fill="none" xmlns="http://www.w3.org/2000/svg">
<path fill-rule="evenodd" clip-rule="evenodd" d="M5 3.84999C4.36487 3.84999 3.85 4.36487 3.85 4.99999V19C3.85 19.6351 4.36487 20.15 5 20.15H19C19.6351 20.15 20.15 19.6351 20.15 19V8.35207L15.6479 3.84999H5ZM2.15 4.99999C2.15 3.42598 3.42599 2.14999 5 2.14999H16C16.2254 2.14999 16.4416 2.23955 16.601 2.39895L21.601 7.39895C21.7604 7.55836 21.85 7.77456 21.85 7.99999V19C21.85 20.574 20.574 21.85 19 21.85H5C3.42599 21.85 2.15 20.574 2.15 19V4.99999Z" fill="#9E9A94"/>
<path fill-rule="evenodd" clip-rule="evenodd" d="M6.15 13C6.15 12.5306 6.53056 12.15 7 12.15H17C17.4694 12.15 17.85 12.5306 17.85 13V21C17.85 21.4694 17.4694 21.85 17 21.85C16.5306 21.85 16.15 21.4694 16.15 21V13.85H7.85V21C7.85 21.4694 7.46944 21.85 7 21.85C6.53056 21.85 6.15 21.4694 6.15 21V13Z" fill="#9E9A94"/>
<path fill-rule="evenodd" clip-rule="evenodd" d="M7 2.14999C7.46944 2.14999 7.85 2.53055 7.85 2.99999V7.14999H15C15.4694 7.14999 15.85 7.53055 15.85 7.99999C15.85 8.46944 15.4694 8.84999 15 8.84999H7C6.53056 8.84999 6.15 8.46944 6.15 7.99999V2.99999C6.15 2.53055 6.53056 2.14999 7 2.14999Z" fill="#9E9A94"/>
</svg>
