<svg width="24" height="24" viewBox="0 0 24 24" fill="none" xmlns="http://www.w3.org/2000/svg">
<path fill-rule="evenodd" clip-rule="evenodd" d="M4 11.15C4.46944 11.15 4.85 11.5306 4.85 12V20.8C4.85 21.6237 5.43929 22.15 6 22.15H18C18.5607 22.15 19.15 21.6237 19.15 20.8V12C19.15 11.5306 19.5306 11.15 20 11.15C20.4694 11.15 20.85 11.5306 20.85 12V20.8C20.85 22.4064 19.6484 23.85 18 23.85H6C4.35157 23.85 3.15 22.4064 3.15 20.8V12C3.15 11.5306 3.53056 11.15 4 11.15Z" fill="#817D78"/>
<path fill-rule="evenodd" clip-rule="evenodd" d="M4 20.85C4.46944 20.85 4.85 20.4694 4.85 20V10.4C4.85 9.39224 5.5034 8.84997 6 8.84997H8.5C8.96944 8.84997 9.35 8.46942 9.35 7.99998C9.35 7.53053 8.96944 7.14997 8.5 7.14997H6C4.28746 7.14997 3.15 8.75674 3.15 10.4V20C3.15 20.4694 3.53056 20.85 4 20.85ZM20 20.85C20.4694 20.85 20.85 20.4694 20.85 20V10.4C20.85 8.75674 19.7125 7.14997 18 7.14997H15.5C15.0306 7.14997 14.65 7.53053 14.65 7.99998C14.65 8.46942 15.0306 8.84997 15.5 8.84997H18C18.4966 8.84997 19.15 9.39224 19.15 10.4V20C19.15 20.4694 19.5306 20.85 20 20.85Z" fill="#817D78"/>
<path fill-rule="evenodd" clip-rule="evenodd" d="M11.4558 0.347036C11.7711 0.0843538 12.2289 0.0843538 12.5442 0.347036L15.5442 2.84704C15.9048 3.14757 15.9535 3.68355 15.653 4.04418C15.3525 4.40482 14.8165 4.45354 14.4558 4.15301L12 2.10648L9.54416 4.15301C9.18352 4.45354 8.64754 4.40482 8.34701 4.04418C8.04648 3.68355 8.09521 3.14757 8.45584 2.84704L11.4558 0.347036Z" fill="#817D78"/>
<path fill-rule="evenodd" clip-rule="evenodd" d="M12 0.150024C12.4694 0.150024 12.85 0.530582 12.85 1.00002V14C12.85 14.4695 12.4694 14.85 12 14.85C11.5306 14.85 11.15 14.4695 11.15 14V1.00002C11.15 0.530582 11.5306 0.150024 12 0.150024Z" fill="#817D78"/>
</svg>
