<svg fill="none" xmlns="http://www.w3.org/2000/svg" viewBox="0 0 28 28">
  <path d="M13.5 24.5c-1.4 0-2.7-.2-3.9-.6-1.1-.4-2-1-3-1.8a8 8 0 01-2-2.8A10.9 10.9 0 017.4 7.5c1.1-1 2.3-1.7 3.6-2.2a11.4 11.4 0 018-.2c1 .4 2 1 2.7 1.6.8.7 1.4 1.6 1.8 2.6.4 1 .6 2 .6 3.3a7.9 7.9 0 01-1.7 5c-.5.5-1 1-1.7 1.3-.5.3-1.1.4-1.7.4-.7 0-1.4-.2-1.9-.5s-.7-.8-.8-1.5h0c-.6.5-1.1 1-1.7 1.3-.6.4-1.2.5-1.8.5-.5 0-.9 0-1.3-.2-.4-.1-.7-.3-1-.6l-.7-1.1c-.2-.4-.3-1-.3-1.5 0-.7.2-1.3.4-2 .2-.6.6-1.3 1-1.8.4-.6 1-1 1.7-1.4.6-.4 1.4-.6 2.2-.6 1 0 1.9.4 2.4 1.2h0l.3-1h.8l-1 4.8c-.7 2.4-.1 3.7 1.8 3.7.4 0 .9-.2 1.4-.4.5-.3 1-.7 1.3-1.2.4-.5.8-1 1-1.8.3-.8.4-1.6.4-2.6a8 8 0 00-.5-3 7 7 0 00-4.2-3.8c-1-.4-2-.6-3.3-.6a10.5 10.5 0 00-7 2.8 10.2 10.2 0 00-2.6 11 7.5 7.5 0 004.5 4.2 10.1 10.1 0 008.4-.7l.4.6c-1.6 1-3.4 1.4-5.3 1.4zm-.8-6c1 0 2.1-.7 3.3-2l.9-4.5c-.4-.6-.7-1-1-1.1l-1.2-.3c-.7 0-1.3.2-1.9.5l-1.4 1.1a5.6 5.6 0 00-1.1 3.4c0 1 .2 1.8.7 2.2.5.4 1 .6 1.7.6z" fill="currentColor" stroke="currentColor"/>
</svg>
