<svg width="46" height="49" viewBox="0 0 46 49" fill="none" xmlns="http://www.w3.org/2000/svg">
<path d="M21.6959 49C18.7715 49 15.9854 48.543 13.3376 47.629C10.7294 46.7149 8.43728 45.324 6.46134 43.4562C4.48539 41.6281 2.90464 39.3629 1.71907 36.6606C0.573025 33.9185 0 30.7194 0 27.0633C0 22.97 0.691582 19.2741 2.07474 15.9757C3.4579 12.6375 5.31529 9.79603 7.64691 7.45134C9.97852 5.06691 12.7053 3.23885 15.8273 1.96716C18.9493 0.655719 22.2491 0 25.7268 0C28.8093 0 31.5954 0.496756 34.085 1.49027C36.6143 2.48378 38.7483 3.89457 40.4871 5.72263C42.2655 7.51095 43.6289 9.67681 44.5773 12.2202C45.5258 14.7238 46 17.4858 46 20.5061C46 23.1687 45.6048 25.5134 44.8144 27.5401C44.0636 29.5272 43.0756 31.1963 41.8505 32.5474C40.6254 33.8986 39.262 34.912 37.7603 35.5876C36.2586 36.2632 34.7766 36.601 33.3144 36.601C31.6151 36.601 30.1727 36.2234 28.9871 35.4684C27.8015 34.7133 27.0704 33.5807 26.7938 32.0706H26.6753C25.7663 33.2628 24.6598 34.2364 23.3557 34.9915C22.0515 35.7466 20.7672 36.1241 19.5026 36.1241C17.329 36.1241 15.5309 35.369 14.1082 33.8589C12.7251 32.309 12.0335 30.163 12.0335 27.4209C12.0335 25.7121 12.3101 24.0231 12.8634 22.354C13.4562 20.6452 14.2663 19.1152 15.2938 17.764C16.3213 16.4128 17.5464 15.32 18.9691 14.4854C20.3918 13.6111 21.9725 13.174 23.7113 13.174C25.7663 13.174 27.3076 14.1476 28.3351 16.0949H28.4536L29.2242 13.6509H33.5515L31.0026 26.2287C30.0146 30.2425 31.0026 32.2494 33.9665 32.2494C34.8754 32.2494 35.7844 31.9911 36.6933 31.4745C37.6022 30.9181 38.4124 30.1431 39.1237 29.1496C39.8351 28.1561 40.4081 26.9639 40.8428 25.573C41.2775 24.1423 41.4948 22.5328 41.4948 20.7445C41.4948 18.4793 41.1589 16.3532 40.4871 14.3662C39.8548 12.3792 38.8668 10.6504 37.5232 9.18005C36.2191 7.66991 34.5395 6.4777 32.4845 5.60341C30.4296 4.72912 27.9991 4.29197 25.1933 4.29197C22.5851 4.29197 20.0558 4.82847 17.6057 5.90146C15.1555 6.97446 12.982 8.50446 11.0851 10.4915C9.18814 12.4388 7.64691 14.8033 6.46134 17.5852C5.31529 20.3273 4.74227 23.4071 4.74227 26.8248C4.74227 29.7656 5.19674 32.3487 6.10567 34.5742C7.01461 36.7997 8.25945 38.6476 9.84021 40.118C11.421 41.6281 13.2784 42.7607 15.4124 43.5158C17.5464 44.2709 19.8187 44.6484 22.2294 44.6484C23.8892 44.6484 25.5292 44.41 27.1495 43.9331C28.7698 43.4959 30.232 42.9197 31.5361 42.2044L33.1366 46.0195C29.6589 48.0065 25.8454 49 21.6959 49ZM20.9253 31.6533C21.6366 31.6533 22.3677 31.4148 23.1186 30.938C23.8694 30.4611 24.6993 29.6663 25.6082 28.5535L27.1495 19.7908C26.2801 18.3998 25.1933 17.7044 23.8892 17.7044C22.8617 17.7044 21.933 18.0024 21.1031 18.5985C20.3127 19.1947 19.6211 19.9497 19.0284 20.8637C18.4751 21.7778 18.0404 22.7912 17.7242 23.9039C17.4476 24.9769 17.3093 26.0101 17.3093 27.0037C17.3093 28.633 17.6254 29.8252 18.2577 30.5803C18.9296 31.2956 19.8187 31.6533 20.9253 31.6533Z" fill="#000"/>
</svg>
