<svg fill="none" xmlns="http://www.w3.org/2000/svg" viewBox="0 0 28 28">
  <path d="M16 22c-1.1 0-2.2-.2-3.2-.5-1-.4-1.8-.9-2.5-1.5a6.8 6.8 0 01-1.7-2.4 9.3 9.3 0 012.3-10c.9-.8 1.9-1.5 3-2a9.7 9.7 0 016.7 0 5.8 5.8 0 013.8 3.6c.4.7.6 1.7.6 2.7a6.7 6.7 0 01-1.4 4.2l-1.4 1.1c-.6.3-1 .4-1.5.4a3 3 0 01-1.6-.4c-.4-.3-.7-.7-.7-1.3h0L16.8 17a3 3 0 01-2.6.3 3 3 0 01-.9-.6l-.6-.9-.2-1.3.3-1.6c.2-.6.5-1.1.9-1.6s.8-1 1.4-1.2c.6-.3 1.2-.5 2-.5s1.5.3 2 1h0l.2-.8h.6l-.8 4c-.6 2.1 0 3.2 1.5 3.2.4 0 .8-.1 1.2-.4.5-.2.8-.5 1.2-1 .3-.4.6-.9.8-1.5.3-.6.4-1.4.4-2.2 0-1-.2-1.8-.5-2.6s-.8-1.4-1.4-2a6 6 0 00-2.1-1.2 8.9 8.9 0 00-8.8 2 8.7 8.7 0 00-2.3 9.2 6.4 6.4 0 003.9 3.6 8.6 8.6 0 007.1-.6l.4.5A8.8 8.8 0 0116 22zm-.6-5.2c.9 0 1.8-.5 2.8-1.5l.8-4c-.4-.4-.7-.7-1-.8a2 2 0 00-1-.3c-.5 0-1 .1-1.5.4l-1.2 1-.7 1.4c-.2.5-.2 1-.2 1.4 0 1 .2 1.6.5 1.9.4.4 1 .5 1.5.5z" fill="currentColor" stroke="currentColor"/>
  <path d="M7.5 23.5c1 .3 2 .5 3 .5 1.6 0 3.2-1 4.5-1.7l-.8-.3c-.6.3-.8.9-1.5 1-.6.3-1.3.4-2 .4-1.1 0-2-.2-3-.5a6 6 0 01-3.5-3.6c-.4-.9-.5-1.9-.5-3A9 9 0 016.2 10c.8-.8 1.6-1.4 2.6-1.8 1-.4 1.5-.5 2.6-.5l.5-.7a8.7 8.7 0 00-6.2 2.6 9 9 0 00-2 3 9.8 9.8 0 00-.1 7 6.8 6.8 0 004 3.9z" fill="currentColor" stroke="currentColor"/>
</svg>