<svg fill="none" xmlns="http://www.w3.org/2000/svg" viewBox="0 0 28 28">
  <path d="M13.5 24c-1.4 0-2.7-.2-3.9-.6-1.1-.4-2-1-3-1.8a8 8 0 01-2-2.8A10.9 10.9 0 017.4 7C8.5 6 9.7 5.3 11 4.8a11.4 11.4 0 018-.2c1 .4 2 1 2.7 1.6.8.7 1.4 1.6 1.8 2.6.4 1 .6 2 .6 3.3a7.9 7.9 0 01-1.7 5c-.5.6-1 1-1.7 1.3-.5.3-1.1.4-1.7.4-.7 0-1.4-.2-1.9-.5s-.7-.8-.8-1.5c-.6.5-1.1 1-1.7 1.3-.6.4-1.2.5-1.8.5-.5 0-.9 0-1.3-.2-.4-.1-.7-.3-1-.6l-.7-1.1c-.2-.4-.3-1-.3-1.5 0-.6.2-1.3.4-2 .2-.6.6-1.3 1-1.8.4-.6 1-1 1.7-1.4.6-.4 1.4-.6 2.2-.6 1 0 1.9.4 2.4 1.2l.3-1h.8l-1 4.8C16.5 16.8 17 18 19 18c.4 0 .9-.2 1.4-.4.5-.3 1-.7 1.3-1.2.4-.5.8-1 1-1.8.3-.7.4-1.6.4-2.5a8 8 0 00-.5-3.1 7 7 0 00-4.2-3.8c-1-.4-2-.6-3.3-.6a10.5 10.5 0 00-7 2.8 10.2 10.2 0 00-2.6 11 7.5 7.5 0 004.5 4.2 10.1 10.1 0 008.4-.7l.4.6c-1.6 1-3.4 1.4-5.3 1.4zm-.8-6c1 0 2.1-.7 3.3-1.9l.9-4.6c-.4-.5-.7-.9-1-1-.4-.3-.8-.4-1.2-.4-.7 0-1.3.2-1.9.5-.5.3-1 .7-1.4 1.2a5.6 5.6 0 00-1.1 3.4c0 1 .2 1.7.7 2.1.5.4 1 .6 1.7.6z" fill="currentColor"/>
  <path fill-rule="evenodd" clip-rule="evenodd" d="M17.3 11.2zM17 9.6l.1-.5h1.8l-1.1 5.4c-.4 1.2-.4 2-.1 2.4.1.4.5.7 1.4.7.3 0 .7-.1 1.2-.4.4-.2.8-.5 1.1-1 .4-.4.7-1 1-1.7a7 7 0 00.3-2.3c0-1.1-.1-2-.5-3a6 6 0 00-1.5-2.1c-.6-.6-1.4-1-2.4-1.4A10 10 0 008.3 8 9.7 9.7 0 006 18.3a7 7 0 004.2 3.9 9.6 9.6 0 005.9.2c.8-.2 1.5-.5 2.1-.9l.4-.2 1 1.5-.5.2c-1.6 1-3.5 1.5-5.5 1.5-1.5 0-2.8-.2-4-.7A8.5 8.5 0 014.2 19c-.5-1.2-.7-2.5-.7-4A11.4 11.4 0 017 6.8a12 12 0 0112-2.5c1.2.3 2.1 1 3 1.7.8.7 1.4 1.6 1.8 2.7a9 9 0 01.7 3.5 8.4 8.4 0 01-1.8 5.3c-.5.6-1.2 1.1-1.8 1.4-.7.3-1.3.5-2 .5a4 4 0 01-2.1-.5l-.9-1-1.1.8a4 4 0 01-3.5.3 4 4 0 01-1.2-.7c-.4-.4-.7-.8-.9-1.3-.2-.5-.3-1.1-.3-1.7 0-.7.2-1.4.4-2.1a7 7 0 011-2h.1c.5-.7 1.1-1.2 1.8-1.6a5 5 0 012.5-.6c.9 0 1.6.3 2.2.7zm-2.2 1c-.6 0-1.2.2-1.6.4a4 4 0 00-1.3 1l-.7 1.5-.3 1.6c0 1 .2 1.6.5 1.8.4.4.9.5 1.4.5.8 0 1.7-.4 2.8-1.5l.9-4.3a3 3 0 00-.8-.8l-1-.2z" fill="currentColor"/>
</svg>
