<svg fill="none" xmlns="http://www.w3.org/2000/svg" viewBox="0 0 28 28">
  <path fill-rule="evenodd" clip-rule="evenodd" d="M19 9.7v-.4h1.6l-1 4.6c-.2 1-.2 1.7 0 2 .1.4.4.6 1.1.6l1-.3 1-.8.8-1.5c.2-.5.3-1.2.3-2 0-.9-.2-1.7-.5-2.4a5 5 0 00-1.2-1.8c-.6-.5-1.2-.9-2-1.2-.8-.2-1.7-.4-2.7-.4a8.4 8.4 0 00-5.6 2.3 8.2 8.2 0 00-2 8.7 5.9 5.9 0 003.4 3.3 8.1 8.1 0 005 .2c.6-.2 1.2-.4 1.8-.8l.4-.2.9 1.4-.5.2a10 10 0 01-8.2.7c-1-.3-1.9-.8-2.7-1.5a7.3 7.3 0 01-1.8-2.6c-.4-1-.6-2.1-.6-3.4a9.8 9.8 0 0110-9.9c1.2 0 2.3.2 3.3.5 1 .4 1.8.9 2.5 1.5C24 7.2 24.6 8 25 9c.4.9.6 1.9.6 3a7.2 7.2 0 01-1.6 4.6c-.4.5-1 .9-1.5 1.2a4 4 0 01-1.7.4c-.7 0-1.4-.2-1.9-.5a2 2 0 01-.7-.8l-.9.6a3.5 3.5 0 01-3 .3c-.5-.1-.8-.3-1.1-.6-.3-.3-.6-.7-.7-1.1a4 4 0 01-.3-1.5l.3-1.8a5.3 5.3 0 012.5-3c.7-.4 1.4-.6 2.2-.6.7 0 1.3.2 1.8.6zm-2 1c-.4 0-.9.1-1.3.3-.4.3-.7.5-1 1-.2.3-.5.7-.6 1.1-.2.5-.2 1-.2 1.3 0 .9.1 1.3.4 1.5.3.3.7.4 1.1.4.6 0 1.4-.3 2.3-1.3l.7-3.5-.6-.6-.7-.2z" fill="currentColor"/>
  <path fill-rule="evenodd" clip-rule="evenodd" d="M8.4 7.2c1.1-.5 2.3-.7 3.5-.7h1l-1.3 1.7h-.2c-1 0-1.4.1-2.4.5A7.6 7.6 0 004.8 13a8.6 8.6 0 00-.2 6.1A5.6 5.6 0 008 22.4a7.2 7.2 0 004.7.2c.2 0 .3-.2.6-.4l.7-.6.2-.2 2 .8-.8.5c-1.3.8-3 1.8-4.7 1.8a9 9 0 01-3.3-.6 7.3 7.3 0 01-4.2-4.1A10.3 10.3 0 015.4 9.2c.8-.8 1.8-1.5 3-2z" fill="currentColor"/>
</svg>
