<svg width="24" height="24" viewBox="0 0 24 24" fill="none" xmlns="http://www.w3.org/2000/svg">
<path fill-rule="evenodd" clip-rule="evenodd" d="M6.10001 12C6.10001 8.74153 8.74153 6.10001 12 6.10001C15.2585 6.10001 17.9 8.74153 17.9 12C17.9 15.2585 15.2585 17.9 12 17.9C8.74153 17.9 6.10001 15.2585 6.10001 12ZM12 7.90001C9.73564 7.90001 7.90001 9.73564 7.90001 12C7.90001 14.2644 9.73564 16.1 12 16.1C14.2644 16.1 16.1 14.2644 16.1 12C16.1 9.73564 14.2644 7.90001 12 7.90001Z" fill="#817D78"/>
<path fill-rule="evenodd" clip-rule="evenodd" d="M12 0.100006C12.4971 0.100006 12.9 0.50295 12.9 1.00001V3.00001C12.9 3.49706 12.4971 3.90001 12 3.90001C11.5029 3.90001 11.1 3.49706 11.1 3.00001V1.00001C11.1 0.50295 11.5029 0.100006 12 0.100006Z" fill="#817D78"/>
<path fill-rule="evenodd" clip-rule="evenodd" d="M12 20.1C12.4971 20.1 12.9 20.5029 12.9 21V23C12.9 23.4971 12.4971 23.9 12 23.9C11.5029 23.9 11.1 23.4971 11.1 23V21C11.1 20.5029 11.5029 20.1 12 20.1Z" fill="#817D78"/>
<path fill-rule="evenodd" clip-rule="evenodd" d="M3.58361 3.58361C3.93508 3.23214 4.50493 3.23214 4.8564 3.58361L6.2764 5.00361C6.62788 5.35508 6.62788 5.92493 6.2764 6.2764C5.92493 6.62788 5.35508 6.62788 5.00361 6.2764L3.58361 4.8564C3.23214 4.50493 3.23214 3.93508 3.58361 3.58361Z" fill="#817D78"/>
<path fill-rule="evenodd" clip-rule="evenodd" d="M17.7236 17.7236C18.0751 17.3721 18.6449 17.3721 18.9964 17.7236L20.4164 19.1436C20.7679 19.4951 20.7679 20.0649 20.4164 20.4164C20.0649 20.7679 19.4951 20.7679 19.1436 20.4164L17.7236 18.9964C17.3721 18.6449 17.3721 18.0751 17.7236 17.7236Z" fill="#817D78"/>
<path fill-rule="evenodd" clip-rule="evenodd" d="M0.100006 12C0.100006 11.5029 0.50295 11.1 1.00001 11.1H3.00001C3.49706 11.1 3.90001 11.5029 3.90001 12C3.90001 12.4971 3.49706 12.9 3.00001 12.9H1.00001C0.50295 12.9 0.100006 12.4971 0.100006 12Z" fill="#817D78"/>
<path fill-rule="evenodd" clip-rule="evenodd" d="M20.1 12C20.1 11.5029 20.5029 11.1 21 11.1H23C23.4971 11.1 23.9 11.5029 23.9 12C23.9 12.4971 23.4971 12.9 23 12.9H21C20.5029 12.9 20.1 12.4971 20.1 12Z" fill="#817D78"/>
<path fill-rule="evenodd" clip-rule="evenodd" d="M6.2764 17.7236C6.62788 18.0751 6.62788 18.6449 6.2764 18.9964L4.8564 20.4164C4.50493 20.7679 3.93508 20.7679 3.58361 20.4164C3.23214 20.0649 3.23214 19.4951 3.58361 19.1436L5.00361 17.7236C5.35508 17.3721 5.92493 17.3721 6.2764 17.7236Z" fill="#817D78"/>
<path fill-rule="evenodd" clip-rule="evenodd" d="M20.4164 3.58361C20.7679 3.93508 20.7679 4.50493 20.4164 4.8564L18.9964 6.2764C18.6449 6.62788 18.0751 6.62788 17.7236 6.2764C17.3721 5.92493 17.3721 5.35508 17.7236 5.00361L19.1436 3.58361C19.4951 3.23214 20.0649 3.23214 20.4164 3.58361Z" fill="#817D78"/>
</svg>
