<svg fill="none" xmlns="http://www.w3.org/2000/svg" viewBox="0 0 28 28">
    <path fill-rule="evenodd" clip-rule="evenodd" d="M8.3 10.7c0-.6.4-1 .9-1h15c.4 0 .8.4.8 1 0 .5-.4 1-.9 1h-15c-.4 0-.8-.5-.8-1zM8.3 17.3c0-.5.4-1 .9-1h15c.4 0 .8.5.8 1 0 .6-.4 1-.9 1h-15c-.4 0-.8-.4-.8-1z" fill="currentColor"/>
    <path fill-rule="evenodd" clip-rule="evenodd" d="M20.5 3c.5 0 .8.5.8 1l-2 20.1c0 .6-.4 1-.9.9-.5 0-.8-.5-.8-1l1.9-20.1c0-.6.5-1 1-.9z" fill="currentColor"/>
    <path fill-rule="evenodd" clip-rule="evenodd" d="M3 10.7c0-.6.4-1 .9-1h15c.4 0 .8.4.8 1 0 .5-.4 1-.9 1h-15c-.4 0-.8-.5-.8-1zM3 17.3c0-.5.4-1 .9-1h15c.4 0 .8.5.8 1 0 .6-.4 1-.9 1h-15c-.4 0-.8-.4-.8-1z" fill="currentColor"/>
    <path fill-rule="evenodd" clip-rule="evenodd" d="M9.6 3c.5 0 .8.5.8 1L8.5 24.2c0 .6-.5 1-1 .9-.5 0-.8-.5-.8-1l2-20.1c0-.6.4-1 .9-.9zM15.2 3c.5 0 .8.5.8 1L14 24.2c0 .6-.5 1-1 .9-.4 0-.8-.5-.7-1l1.8-20.1c0-.6.5-1 1-.9z" fill="currentColor"/>
</svg>
