<svg width="24" height="24" viewBox="0 0 24 24" fill="none" xmlns="http://www.w3.org/2000/svg">
<path d="M23.2084 2.56941H17.4459L17.1609 1.01647C17.0343 0.42353 16.4644 0 15.7995 0H8.29551C7.63061 0 7.06069 0.42353 6.9657 1.01647L6.68074 2.56941H0.791557C0.348285 2.56941 0 2.88 0 3.27529C0 3.67059 0.348285 3.98118 0.791557 3.98118H2.50132L3.8628 22.2494C3.92612 23.2376 4.90765 24 6.04749 24H17.9525C19.124 24 20.0739 23.2376 20.1372 22.2494L21.4987 3.98118H23.2084C23.6517 3.98118 24 3.67059 24 3.27529C24 2.88 23.6517 2.56941 23.2084 2.56941ZM8.51715 1.41176H15.6095L15.8311 2.56941H8.29551L8.51715 1.41176ZM18.5541 22.1647C18.5224 22.3906 18.2691 22.5882 17.9208 22.5882H6.04749C5.73087 22.5882 5.44591 22.3906 5.41425 22.1647L4.08443 4.00941H19.9156L18.5541 22.1647Z" fill="#999999"/>
<path d="M8.16882 16.6306C8.39046 16.8282 8.70708 16.9412 9.0237 16.9412C9.34033 16.9412 9.65695 16.8282 9.87858 16.6306L12 14.7388L14.1213 16.6306C14.343 16.8282 14.6596 16.9412 14.9762 16.9412C15.2928 16.9412 15.6095 16.8282 15.8311 16.6306C16.306 16.2071 16.306 15.5294 15.8311 15.1059L13.7097 13.2141L15.8311 11.3224C16.306 10.8988 16.306 10.2212 15.8311 9.79766C15.3562 9.37413 14.5963 9.37413 14.1213 9.79766L12 11.6894L9.87858 9.79766C9.40365 9.37413 8.64376 9.37413 8.16882 9.79766C7.69389 10.2212 7.69389 10.8988 8.16882 11.3224L10.2902 13.2141L8.16882 15.1059C7.69389 15.5294 7.69389 16.2071 8.16882 16.6306Z" fill="#999999"/>
</svg>
