<svg width="24" height="24" viewBox="0 0 24 24" fill="none" xmlns="http://www.w3.org/2000/svg">
<path fill-rule="evenodd" clip-rule="evenodd" d="M4.04999 6.33334C4.04999 5.91913 4.38577 5.58334 4.79999 5.58334H19.8C20.2142 5.58334 20.55 5.91913 20.55 6.33334C20.55 6.74756 20.2142 7.08334 19.8 7.08334H4.79999C4.38577 7.08334 4.04999 6.74756 4.04999 6.33334Z" fill="#817D78"/>
<path fill-rule="evenodd" clip-rule="evenodd" d="M10.6333 3.75C10.1271 3.75 9.71667 4.16041 9.71667 4.66667V6.33333C9.71667 6.74755 9.38088 7.08333 8.96667 7.08333C8.55245 7.08333 8.21667 6.74755 8.21667 6.33333V4.66667C8.21667 3.33198 9.29865 2.25 10.6333 2.25H13.9667C15.3014 2.25 16.3833 3.33198 16.3833 4.66667V6.33333C16.3833 6.74755 16.0475 7.08333 15.6333 7.08333C15.2191 7.08333 14.8833 6.74755 14.8833 6.33333V4.66667C14.8833 4.16041 14.4729 3.75 13.9667 3.75H10.6333ZM6.46667 5.58335C6.88089 5.58335 7.21667 5.91913 7.21667 6.33335V18C7.21667 18.5063 7.62708 18.9167 8.13334 18.9167H16.4667C16.9729 18.9167 17.3833 18.5063 17.3833 18V6.33335C17.3833 5.91913 17.7191 5.58335 18.1333 5.58335C18.5476 5.58335 18.8833 5.91913 18.8833 6.33335V18C18.8833 19.3347 17.8014 20.4167 16.4667 20.4167H8.13334C6.79865 20.4167 5.71667 19.3347 5.71667 18V6.33335C5.71667 5.91913 6.05246 5.58335 6.46667 5.58335Z" fill="#817D78"/>
<path fill-rule="evenodd" clip-rule="evenodd" d="M10.6333 9.75C11.0475 9.75 11.3833 10.0858 11.3833 10.5V15.5C11.3833 15.9142 11.0475 16.25 10.6333 16.25C10.2191 16.25 9.88333 15.9142 9.88333 15.5V10.5C9.88333 10.0858 10.2191 9.75 10.6333 9.75Z" fill="#817D78"/>
<path fill-rule="evenodd" clip-rule="evenodd" d="M13.9666 9.75C14.3809 9.75 14.7166 10.0858 14.7166 10.5V15.5C14.7166 15.9142 14.3809 16.25 13.9666 16.25C13.5524 16.25 13.2166 15.9142 13.2166 15.5V10.5C13.2166 10.0858 13.5524 9.75 13.9666 9.75Z" fill="#817D78"/>
</svg>
